<svg width="360" height="65" viewBox="0 0 360 65" fill="none" xmlns="http://www.w3.org/2000/svg">
<path d="M170.25 8.85C164.3 3.35 156.3 0 147.5 0C129.2 0 114.4 14.55 114.4 32.5C114.4 50.45 129.25 65 147.5 65C156.3 65 164.3 61.6 170.25 56.15V62.5H180.65V8.85C177.8 11.65 173.1 11.65 170.25 8.85ZM147.55 55.6C134.8 55.6 124.45 45.25 124.45 32.45C124.45 19.7 134.8 9.35 147.55 9.35C160.3 9.35 170.65 19.7 170.65 32.45C170.6 45.25 160.3 55.6 147.55 55.6Z" fill="white"/>
<path d="M208.75 2.5L230 45L251.25 2.5H262.5L232.5 62.5H227.5L197.5 2.5H208.75Z" fill="white"/>
<path d="M92.5 0H82.5V62.5H92.5V0Z" fill="white"/>
<path d="M287.5 11.25C289.55 11.25 291.35 12.25 292.5 13.75V2.5H282.5V13.75C283.65 12.25 285.45 11.25 287.5 11.25Z" fill="white"/>
<path d="M287.5 23.75C285.45 23.75 283.65 22.75 282.5 21.25V62.5H292.5V21.25C291.35 22.75 289.55 23.75 287.5 23.75Z" fill="white"/>
<path d="M34.2 55.25C21.1 55.25 10.5 45.05 10.5 32.5C10.5 19.95 21.1 9.75 34.2 9.75C42.9 9.75 50.45 14.25 54.6 20.95L62.5 16.1C56.7 6.5 45.9 0 33.55 0C15 0 0 14.55 0 32.5C0 50.45 15 65 33.55 65C45.9 65 56.7 58.55 62.5 48.9L54.6 44.05C50.45 50.75 42.9 55.25 34.2 55.25Z" fill="white"/>
<path d="M350.25 32.1C346.05 29.6 342 27.55 338.1 26.05C335.75 25.15 333.3 24.1 331.35 22.3C329.15 20.3 328.1 17.55 328.5 15.15C329.1 11.75 332.4 9.6 335.25 9.05C342 7.7 348.25 11.35 352.35 14.65L352.85 15.05L360 8.9L359.25 8.3C355.9 5.6 352.45 3.5 348.95 2.1C340.3 -1.4 330.65 -0.45 324.4 4.45C319 8.65 316.65 15.95 318.75 21.75C320.15 25.55 323.4 29 328.2 31.7C330.55 33.05 333.15 34.15 335.6 35.2C337.45 36 339.35 36.85 341.2 37.75C347.65 41 350.1 45.2 348.35 49.85C346.6 54.45 341.1 56.1 336.45 56.1C333.9 56.1 331.5 55.55 329 54.45C326.6 53.4 324.25 51.75 321.9 49.55L321.35 49L314.5 55.75L315.05 56.3C320.65 62.2 330.25 65.55 339.5 64.9C348.1 64.3 357.65 58.8 359.15 49.55C360.25 42.95 356.8 36.25 350.25 32.1Z" fill="white"/>
</svg>
