<svg width="120" height="22" fill="none" xmlns="http://www.w3.org/2000/svg"><path d="M56.75 2.95A11.13 11.13 0 0049.167 0c-6.1 0-11.034 4.85-11.034 10.833 0 5.984 4.95 10.834 11.034 10.834 2.933 0 5.6-1.134 7.583-2.95v2.116h3.467V2.95a2.496 2.496 0 01-3.467 0zm-7.567 15.583c-4.25 0-7.7-3.45-7.7-7.716 0-4.25 3.45-7.7 7.7-7.7s7.7 3.45 7.7 7.7c-.016 4.266-3.45 7.716-7.7 7.716zm20.4-17.7L76.667 15 83.75.833h3.75l-10 20h-1.667l-10-20h3.75zM30.833 0H27.5v20.833h3.333V0zm65 3.75a2.1 2.1 0 011.667.833V.833h-3.333v3.75a2.1 2.1 0 011.666-.833zm0 4.167a2.1 2.1 0 01-1.666-.834v13.75H97.5V7.083a2.1 2.1 0 01-1.667.834zM11.4 18.417c-4.367 0-7.9-3.4-7.9-7.584 0-4.183 3.533-7.583 7.9-7.583 2.9 0 5.417 1.5 6.8 3.733l2.633-1.616C18.9 2.167 15.3 0 11.183 0 5 0 0 4.85 0 10.833c0 5.984 5 10.834 11.183 10.834 4.117 0 7.717-2.15 9.65-5.367L18.2 14.683c-1.383 2.234-3.9 3.734-6.8 3.734zM116.75 10.7c-1.4-.833-2.75-1.517-4.05-2.017-.783-.3-1.6-.65-2.25-1.25-.733-.666-1.083-1.583-.95-2.383.2-1.133 1.3-1.85 2.25-2.033 2.25-.45 4.333.766 5.7 1.866l.167.134L120 2.967l-.25-.2c-1.117-.9-2.267-1.6-3.433-2.067-2.884-1.167-6.1-.85-8.184.783-1.8 1.4-2.583 3.834-1.883 5.767.467 1.267 1.55 2.417 3.15 3.317.783.45 1.65.816 2.467 1.166.616.267 1.25.55 1.866.85 2.15 1.084 2.967 2.484 2.384 4.034-.584 1.533-2.417 2.083-3.967 2.083-.85 0-1.65-.183-2.483-.55-.8-.35-1.584-.9-2.367-1.633l-.183-.184-2.284 2.25.184.184c1.866 1.966 5.066 3.083 8.15 2.866 2.866-.2 6.05-2.033 6.55-5.116.366-2.2-.784-4.434-2.967-5.817z" fill="#BF0"/></svg>