<svg viewBox="0 0 24 24"  xmlns="http://www.w3.org/2000/svg" style="display:none">

	<symbol viewBox="0 0 20 20" id="tel">
		<path d="M19.2508 14.1021L16.8412 11.699C16.3653 11.2066 15.7903 10.9483 15.1808 10.9483C14.5753 10.9483 13.9962 11.2066 13.5062 11.6929L12.2508 12.9439C12.188 12.9116 12.1272 12.8814 12.0706 12.8531C11.9227 12.7805 11.781 12.7078 11.6595 12.6312C10.3859 11.8261 9.22559 10.7708 8.10988 9.4088C7.61784 8.78935 7.27766 8.26877 7.03062 7.75626C7.34853 7.45965 7.64821 7.15698 7.93169 6.86643C8.05116 6.74536 8.1767 6.62026 8.2982 6.49919C8.80037 5.99879 9.06563 5.41566 9.06563 4.81437C9.06563 4.20904 8.80037 3.62591 8.2982 3.12954L7.10149 1.93705C6.96583 1.80186 6.83623 1.6707 6.70259 1.53148L6.69652 1.52542C6.43531 1.25706 6.15385 0.972559 5.87239 0.712268C5.39452 0.246166 4.8235 0 4.22009 0C3.62072 0 3.04363 0.248184 2.55158 0.716304L1.04305 2.21953C0.433557 2.82082 0.0893268 3.55529 0.0184559 4.40274C-0.0625394 5.41162 0.121725 6.477 0.597572 7.7502C1.31438 9.69128 2.39364 11.4871 3.9933 13.4019C5.93111 15.7102 8.27187 17.5363 10.9467 18.8297L10.9488 18.8317C11.9835 19.32 13.3685 19.8931 14.9013 19.9919H14.9196C15.0087 19.996 15.0998 20 15.197 20C16.2965 20 17.1834 19.6207 17.9063 18.8398C17.9184 18.8257 17.9346 18.8095 17.9508 18.7873C18.1533 18.5472 18.3841 18.3212 18.6312 18.0851L18.6879 18.0307C18.9187 17.8107 19.1009 17.6291 19.2629 17.4617C19.7469 16.9592 20.002 16.3761 20 15.7728C20 15.1675 19.7408 14.5904 19.2508 14.1021ZM1.68898 4.54399C1.72948 4.08596 1.9016 3.72074 2.2276 3.39588L3.71994 1.9088C3.88396 1.75141 4.05607 1.66667 4.21604 1.66667C4.41042 1.66667 4.58254 1.79984 4.69188 1.91082L4.70403 1.92292C4.93082 2.13277 5.14951 2.35472 5.38034 2.58878L5.48564 2.69572C5.55448 2.76634 5.62535 2.83697 5.69622 2.90961C5.76507 2.97821 5.83392 3.04883 5.90276 3.11945L7.10352 4.31598C7.22906 4.44108 7.3789 4.63075 7.3789 4.82042C7.3789 5.01009 7.22906 5.19976 7.10352 5.32486C7.04075 5.38741 6.97797 5.44996 6.9152 5.51453C6.85446 5.57708 6.79169 5.63963 6.72891 5.70218L6.64387 5.78693C6.30571 6.12793 5.98376 6.45077 5.6375 6.75948L5.60308 6.79379C5.07864 7.31638 5.25885 7.85714 5.31757 8.03471C5.32162 8.04883 5.32567 8.05892 5.32972 8.07103L5.33782 8.0912C5.66585 8.87409 6.11538 9.60452 6.79574 10.458L6.79776 10.46C8.02281 11.9653 9.31469 13.1376 10.7503 14.0476C10.9083 14.1505 11.0682 14.2312 11.2242 14.3079C11.2525 14.322 11.2829 14.3362 11.3112 14.3523L11.3132 14.3543C11.4611 14.427 11.6028 14.4996 11.7243 14.5763L11.7607 14.5964C11.7729 14.6025 11.785 14.6106 11.7972 14.6166C11.9754 14.7074 12.1596 14.7538 12.3439 14.7538C12.6557 14.7538 12.9392 14.6287 13.1863 14.3805L14.6887 12.8834C14.8062 12.7663 14.9844 12.6291 15.1787 12.6291C15.3772 12.6291 15.5493 12.7825 15.6364 12.8753L15.6404 12.8793L18.0662 15.2926C18.4145 15.6396 18.4084 15.9463 18.05 16.3176L18.046 16.3216C17.8759 16.5032 17.6957 16.6768 17.5256 16.8402L17.477 16.8866C17.2057 17.1489 16.9262 17.4193 16.665 17.73C16.2681 18.1538 15.8166 18.3414 15.201 18.3414C15.1443 18.3414 15.0795 18.3374 15.0147 18.3333C13.7573 18.2526 12.5727 17.7583 11.6797 17.3345C9.22154 16.1481 7.06909 14.4693 5.28517 12.3426C3.81308 10.5771 2.82494 8.93664 2.17091 7.17918C1.78415 6.14205 1.62824 5.30266 1.68898 4.54399Z"/>
	</symbol>

	<symbol viewBox="0 0 15 15" id="instagram">
		<path d="M10.8605 0H4.13937C1.85692 0 0 1.85701 0 4.13946V10.8605C0 13.1431 1.85692 15 4.13937 15H10.8605C13.1431 15 15 13.143 15 10.8605V4.13946C15.0001 1.85701 13.1431 0 10.8605 0ZM13.6692 10.8605C13.6692 12.4092 12.4092 13.6691 10.8605 13.6691H4.13937C2.59077 13.6692 1.33087 12.4092 1.33087 10.8605V4.13946C1.33087 2.59085 2.59077 1.33087 4.13937 1.33087H10.8605C12.4091 1.33087 13.6691 2.59085 13.6691 4.13946L13.6692 10.8605Z"/>
		<path d="M7.50004 3.6346C5.36878 3.6346 3.63492 5.36846 3.63492 7.49972C3.63492 9.63089 5.36878 11.3647 7.50004 11.3647C9.6313 11.3647 11.3652 9.63089 11.3652 7.49972C11.3652 5.36846 9.6313 3.6346 7.50004 3.6346ZM7.50004 10.0337C6.10271 10.0337 4.96579 8.89696 4.96579 7.49963C4.96579 6.10222 6.10262 4.96539 7.50004 4.96539C8.89746 4.96539 10.0343 6.10222 10.0343 7.49963C10.0343 8.89696 8.89737 10.0337 7.50004 10.0337Z"/>
		<path d="M11.5271 2.50633C11.2707 2.50633 11.0188 2.61013 10.8377 2.79202C10.6558 2.97302 10.5511 3.225 10.5511 3.4823C10.5511 3.7388 10.6558 3.99069 10.8377 4.17258C11.0187 4.35358 11.2707 4.45827 11.5271 4.45827C11.7844 4.45827 12.0355 4.35358 12.2174 4.17258C12.3993 3.99069 12.5031 3.73871 12.5031 3.4823C12.5031 3.225 12.3993 2.97302 12.2174 2.79202C12.0364 2.61013 11.7844 2.50633 11.5271 2.50633Z"/>
	</symbol>

	<symbol viewBox="0 0 15 15" id="facebook">
		<path fill-rule="evenodd" clip-rule="evenodd" d="M5 0C2.23858 0 0 2.23858 0 5V10C0 12.7614 2.23858 15 5 15H7.5V9.84375H5.625V7.5H7.5V5.625C7.5 4.07156 8.75906 2.8125 10.3125 2.8125H12.1875V5.15625H11.25C11.2082 5.15625 11.167 5.15593 11.1266 5.15562C10.6674 5.15207 10.3125 5.14933 10.3125 5.625V7.5H12.6562L11.7188 9.84375H10.3125V14.9904C12.9284 14.8291 15 12.6565 15 10V5C15 2.23858 12.7614 0 10 0H5Z"/>		
	</symbol>

	<symbol viewBox="0 0 16 11" id="email">
		<path fill-rule="evenodd" clip-rule="evenodd" d="M14.5448 0C15.3485 0 16 0.622925 16 1.39316V9.60684C16 10.3763 15.348 11 14.5448 11H1.4552C0.651517 11 0 10.3771 0 9.60684V1.39316C0 0.623738 0.652033 0 1.4552 0H14.5448ZM6.85987 6.28974L1.68366 2.36698C1.55736 2.27126 1.45455 2.31741 1.45455 2.47046V9.33048C1.45455 9.48509 1.58518 9.60759 1.74632 9.60759H14.2537C14.4159 9.60759 14.5455 9.48353 14.5455 9.33048V2.47046C14.5455 2.31584 14.4429 2.27108 14.3163 2.36698L9.14013 6.28974C8.51088 6.76661 7.48955 6.76694 6.85987 6.28974ZM12.9666 1.39241H3.03335C2.87405 1.39241 2.84224 1.46908 2.96704 1.56366L7.659 5.11944C7.84828 5.26288 8.15267 5.26216 8.341 5.11944L13.033 1.56366C13.1586 1.46846 13.1281 1.39241 12.9666 1.39241Z"/>
	</symbol>

	<symbol viewBox="0 0 17 16" id="whatsapp">
		<path fill-rule="evenodd" clip-rule="evenodd" d="M14.2403 2.32515C12.7362 0.826561 10.7359 0.000842305 8.60482 0C4.21375 0 0.639966 3.55643 0.638209 7.92786C0.637623 9.32521 1.00448 10.6892 1.7016 11.8915L0.571411 16L4.79463 14.8975C5.9582 15.5291 7.2683 15.862 8.60163 15.8625H8.60491C12.9955 15.8625 16.5696 12.3056 16.5714 7.93419C16.5723 5.81573 15.7444 3.82374 14.2403 2.32515ZM8.60491 14.5235H8.6022C7.41406 14.523 6.24869 14.2054 5.23208 13.6049L4.99027 13.4621L2.48419 14.1164L3.15312 11.6847L2.99566 11.4354C2.33285 10.3861 1.98276 9.17346 1.98328 7.92836C1.98473 4.295 4.95515 1.33905 8.60753 1.33905C10.3761 1.33972 12.0386 2.02607 13.2888 3.27164C14.5389 4.51722 15.227 6.17289 15.2264 7.93367C15.2248 11.5673 12.2545 14.5235 8.60491 14.5235ZM12.2369 9.58811C12.0379 9.48896 11.0592 9.00969 10.8767 8.94358C10.6943 8.87747 10.5616 8.84442 10.4289 9.04275C10.2962 9.24106 9.9147 9.68729 9.79855 9.81949C9.68246 9.95171 9.56635 9.96825 9.36728 9.86908C9.16823 9.76992 8.52685 9.56075 7.76652 8.88583C7.17479 8.36057 6.77526 7.71178 6.65915 7.51347C6.54305 7.31514 6.64681 7.20791 6.74645 7.10917C6.83599 7.0204 6.9455 6.87779 7.04504 6.76209C7.14455 6.64642 7.17772 6.56378 7.24407 6.43158C7.31043 6.29936 7.27726 6.18367 7.22749 6.08451C7.17772 5.98536 6.77965 5.01027 6.61375 4.61363C6.45219 4.22734 6.28807 4.2796 6.16588 4.27355C6.0499 4.26781 5.91707 4.26658 5.78438 4.26658C5.65168 4.26658 5.43603 4.31617 5.25356 4.51448C5.07111 4.71281 4.5569 5.19208 4.5569 6.16714C4.5569 7.14221 5.27015 8.08421 5.36969 8.21643C5.4692 8.34865 6.77331 10.3496 8.77013 11.2077C9.24505 11.4118 9.61584 11.5337 9.90492 11.6251C10.3818 11.7758 10.8157 11.7545 11.1587 11.7035C11.5412 11.6467 12.3364 11.2243 12.5023 10.7615C12.6682 10.2988 12.6682 9.90214 12.6184 9.81951C12.5687 9.73688 12.436 9.68729 12.2369 9.58811Z"/>
	</symbol>
		
</svg>