<svg width="120" height="22" viewBox="0 0 120 22" fill="none" xmlns="http://www.w3.org/2000/svg">
<g id="Vector">
<path d="M56.75 2.95C54.7667 1.11667 52.1 0 49.1667 0C43.0667 0 38.1333 4.85 38.1333 10.8333C38.1333 16.8167 43.0833 21.6667 49.1667 21.6667C52.1 21.6667 54.7667 20.5333 56.75 18.7167V20.8333H60.2167V2.95C59.2667 3.88333 57.7 3.88333 56.75 2.95ZM49.1833 18.5333C44.9333 18.5333 41.4833 15.0833 41.4833 10.8167C41.4833 6.56667 44.9333 3.11667 49.1833 3.11667C53.4333 3.11667 56.8833 6.56667 56.8833 10.8167C56.8667 15.0833 53.4333 18.5333 49.1833 18.5333Z" fill="#BBFF00"/>
<path d="M69.5833 0.833333L76.6667 15L83.75 0.833333H87.5L77.5 20.8333H75.8333L65.8333 0.833333H69.5833Z" fill="#BBFF00"/>
<path d="M30.8333 0H27.5V20.8333H30.8333V0Z" fill="#BBFF00"/>
<path d="M95.8333 3.75C96.5167 3.75 97.1167 4.08333 97.5 4.58333V0.833333H94.1667V4.58333C94.55 4.08333 95.15 3.75 95.8333 3.75Z" fill="#BBFF00"/>
<path d="M95.8333 7.91667C95.15 7.91667 94.55 7.58333 94.1667 7.08333V20.8333H97.5V7.08333C97.1167 7.58333 96.5167 7.91667 95.8333 7.91667Z" fill="#BBFF00"/>
<path d="M11.4 18.4167C7.03333 18.4167 3.5 15.0167 3.5 10.8333C3.5 6.65 7.03333 3.25 11.4 3.25C14.3 3.25 16.8167 4.75 18.2 6.98333L20.8333 5.36667C18.9 2.16667 15.3 0 11.1833 0C5 0 0 4.85 0 10.8333C0 16.8167 5 21.6667 11.1833 21.6667C15.3 21.6667 18.9 19.5167 20.8333 16.3L18.2 14.6833C16.8167 16.9167 14.3 18.4167 11.4 18.4167Z" fill="#BBFF00"/>
<path d="M116.75 10.7C115.35 9.86667 114 9.18333 112.7 8.68333C111.917 8.38333 111.1 8.03333 110.45 7.43333C109.717 6.76667 109.367 5.85 109.5 5.05C109.7 3.91667 110.8 3.2 111.75 3.01667C114 2.56667 116.083 3.78333 117.45 4.88333L117.617 5.01667L120 2.96667L119.75 2.76667C118.633 1.86667 117.483 1.16667 116.317 0.7C113.433 -0.466667 110.217 -0.15 108.133 1.48333C106.333 2.88333 105.55 5.31667 106.25 7.25C106.717 8.51667 107.8 9.66667 109.4 10.5667C110.183 11.0167 111.05 11.3833 111.867 11.7333C112.483 12 113.117 12.2833 113.733 12.5833C115.883 13.6667 116.7 15.0667 116.117 16.6167C115.533 18.15 113.7 18.7 112.15 18.7C111.3 18.7 110.5 18.5167 109.667 18.15C108.867 17.8 108.083 17.25 107.3 16.5167L107.117 16.3333L104.833 18.5833L105.017 18.7667C106.883 20.7333 110.083 21.85 113.167 21.6333C116.033 21.4333 119.217 19.6 119.717 16.5167C120.083 14.3167 118.933 12.0833 116.75 10.7Z" fill="#BBFF00"/>
</g>
</svg>
