<svg width="580" height="700" fill="none" xmlns="http://www.w3.org/2000/svg"><g clip-path="url(#clip0_8539_9112)"><g clip-path="url(#clip1_8539_9112)"><path fill-rule="evenodd" clip-rule="evenodd" d="M534.7 184.3l-1.6-2.3-2-1.1.3-2.8.9-1.1.5-1.9.7-.6-.8-2.4-6-1.5-3.4-4.7-2.1-.3-2.4.9-2.2 3.2-2.6 1.8-2.8 1.5-3.5-2.8.2-1.9-.8-1.7-1.8-1.6-6.5-3.7-5.3-.7-2.7.3-3.2 1.3-1.9.4-9.4-.1-3.4 3.5-4.8 2.7-5.3 7.3-1.6 3.2-1.6 1.8-8.4 7.7-2.4-3.9-.1-.9-.7-3.2-2.8-1.4-3.5-1.3-5.6-.3-3.3-1.4-5.3-.3-4.5-2.7-6.9-2.3-3.3-5-3.5-3.8-2.9-2.2-14-7.3-2.2 3.1-8.9 22-3.1.6-.6 1.8-.5 1.1-.2 1.5-.2 1.4.1 2.8-.7 3.5v.4l.1.6.5.8 1.3 3.6-1.6 3.3-1.8.4-4.4 5.3-2 3.3-4.4 3.1-4.6 1.1-4.9-1-2.6-1-2.9-.8-2.9 1-3.2-.7-2.4.4-3.7 1.9-2.2 4.3-4.3 2.5-3.4 2.7-3.1.6-5.8 2-2.5 3.4-1.3 1.4-1.3 1.1-3.5 1.4-1.4 4.8-4.2 8.4-5.8 2.8-3.4.9-4.4.5-5.5 2.1-3.2 3.5-.8 3.5-.6 4.9-1.5 4.6-6 5.1-7.3.2-2.9-1.4-1.8-.3-4.4 2.2-5.1.9-3.2-3.1-1.7-.8-1.6-2.8-2-1.9-2.2-3.1-1.7-1.2-1.7-1-1.9-1.5-1.8-2.4-1-4.7-3.7-7.9-2.1-6.7-1.3-5.7.3-4.1 1.9-1.4 2.4-2.6 5.6-7.4v-3.6l-1.1-1.9-1-2.2-1.3-1-2.2.3-4.7 4.9-2.1 1.2-2.5 3.2-6.9 5.6-4.2 1.2-5.1.2-1.9 1.4-3.5 1.7-2 2.7-2.4 1.1-1.5.3-1.7-1-1.5 1.4-1 3-1.4 3.6-.4 2.8 1 2.6.2.4.3.3.3.4-.4.8-4.4 2.1-4.6-4.8 1.1-8.3v-2.2l-3-5.7-.6-1.4-.5-2.2-.6-4.6 1.6-2.8 3.2-3.3.3-.8-.7-4.7-.6-2.1-.1-.6.3-1.3v-.6l-.2-.9v-.8l.2-1.9-.2-.6-.3-.2-1 .1-.5-.1-.4-.1-.4-.4-.4-.4-.7-1.3-.3-.4-.3-.3-.4-.3-.3-.2-.4-.1h-.5l-.4.1-.4.2-.4.2-.4.2-.4.1-.4-.2-.7-.8-.4-.2-.6-.1-.7.1-.6-.3-.5-.8-1.3-2.8-.7-1-.9-.6-2.1-1-.3-.8v-1.1l1.2-4.5-.4-.5-1 .5-2.7 2.2-1.1.6-.8.1-.4-.2-.4-.2-.4-.2h-.5l-.4.1-.7.5-.4.1-.5.1-.4-.2-.3-.2-.6-.6-.8-.6-1.1-.5-1-.4-4-.2 1.3-5.9 1.6-3 .4-4-1.3-7.6.4-2.2.1-3.4.4-1.9-.5-2.1-.9-1.3-.4-2.1-2-1.8-.6-2v-3.7l-1.4-8.2.5-2.8V128l-.8-1.3-2-2.4-1.7-4.5-2.4-16.5 1.7-5.9-1.6-5.2 2.4-3.4V78.3l-7.2-2.5-3.4-3.5-2-3.4-2.8-3.5-3.3-2.5-4.6-2.6-5.3-4.1-4 .4-2.2 1.8-1.1 2.6-4-2.3-1.3 2.8-2.4 4-1.9 6.7-3.2 5.9-3.6 5.3-3.5 2.1-3.3 1.4-2.8-1.3-1.9-1.1-1.5-1.1-1.3-.5-1.1-.2-1.4.1-1.6 1.3-2.2 2.3-1.8 6.1-4.5 4.2-1 6.3-3.7 5-.6 9.4-4.1-1.2 2.8 4.6.4 1.2.7.9 3.1 2.5.9 1.1.9 4.1.8 2.2 2.2 1.7 2.9 4.6 2.5 2.2 1.1 1.4.5 1.6.6 1.4 3.6 3.8 3.5 5 .1.7.6 1.2 3.5 4.5 1.8 3 1.3 3 1.6 6.2.1.9-.1.7.1.8.4 1.2.9 1.5.9 1.2.9 1.8.1 1.9-.2 3.9.4 1.9 1.4 3.9.8 9.5 3 11.6-.4 3.6-1.8 2.4-.4 1.4.9 2 .4 1.4.4 6.2-.3 3.6-1.8 7.3-1.1 3.1-1.7 3.5-9.2 9.3-2.5 2-2.9.7-3.2-1.3-3.9-3.6-.9-1.3.6-.7-1.1-.1-1.8.5-1.8.7-1.1.8-.2 1.2v3.4l-.3.6v.5l-.1.3-.6.1-.5.3-1.1 1-.3.3-.2.3h-.5l-.6-.1-.3.1v.8l.3.3.4.2 1.7 2.4.4 1-.4 1.1-.8 1-.2.7v.8l.5 2 .9 2.5.4.8-.5 1.3.2 1 .5.8.3.8.1.6.2.9.4.9.8 1 1.5-1.2.8-.4.9-.2-.4-.5-.7-1.4 2.3-.4 2.2.2 1.8.9 1.1 1.7.2 1.4-.2 3.8.2.9.6.9 1.7 1.7.4.2.8.1.4.2.2.6.1 1.5.4.8 1.7 1.6.3 1-1.2.7-1-.3-1-1.1-1.4-1.9-2-1.7-.6-.7.4-1-.9-.6-.5-.9-.4-.9-.6-1.1-.8-.3-1.1.3-2 1 .9 1.2.9 1.7 1 1.4 1.6.6 1.2.7 3.5 3.4.7 1.1.3 1 1.8 2.5 1 2.4 1.9 3.5.4 1.8-.7 1.5 8.2 5.7 2.1 2.4 1.9 3 .5 1.6.2 1.9v3.7l.3.8.6.5 1.2.9 3.5 4.2.7.4.4 1.7 2 4 2 8 .2 1.8.3 1.2 1.5 2.3.3 1.7-1 3.4-2.5.4-2.9-.1-2.4 2-.7 1.9-.9 3.3-1 1.6-1.1 1.4-.7 1.2.1 1.3 1.1 1.7.6-.3.4-.2 1.1-.2-.5 1-.3.9-.2 1v1.2l-.3 1.4-.5.5-.7.2-.6.7-.2 1.3.1 1.2.7.9 2.2.7.6 1 .8 2.4.2.2.3.1.4.3.1.3-.1.7-.3 1.2-.1.6.2 1.1 1.9 3.6 1.1 1.5 1.8 1.7 1.9 1 1.4-.4-1.3-1.1-.3-1.8.7-6-.1-.9-.1-.9-1-3.8-.5-.6-.5-.4-.4-.4-.2-1 .1-1.2.4-.7 1.1-1.1.7-1 .6-.6 1.3-1 2.7-1.1.7-.5 1.1-.4 7-.4 7.1.7 4.4 1.1 1.3.7 3.1 4.8-1 1.6-1 .8-.7.8.1 1.9 1.1 3.1.1 1.3-.6 1.8-.5.8-.5.3-.3.4-.3 1 .1.7.5 3.1-.7 1.1v.9l.7 1.1.7.4.8.2.8-.2.3-.7 1.5-1.1 7.4-1.2 2.2-.9h1l5.7.4.8-.7 1.8-3 1.3-.8-.7 2.1-.5 1.9-.9 1.4-2 .3v.6l1.2.9 1.4 2.5 1 1 1 .3 4.7.4 5.3-1.1.9.2 1.1.8 1.5 1.9 1.5 2.7 1.2 2.9.4 2.5-.4 1-4.5 6.3-.3 1 .7-.5.6-.2.7.2.6.5 1.5-1.2 1.8-.5 1.8.2 1.4 1.1 1.2 1.5 1.2.9 3.8 2.2 5.8 5.9 3.8 2.3.4.5.3.6.5.6.9.2 1-.3 1.3-1.3 1.1-.3 12.1-.4 1.3.8 1.1 1.1 4.8 3.6 1.1.6 1.1.4 1.2.2 1.3-.3 1.9-1.3 1.3-.3v-.6l-1.1-2.4 2.2-2.9 5.6-4.1 3-1.4 1.9-.5.8.3.5-1.6 1.1-1.5 1.4-1.3 1.2-.8 2.4-1 .7-.3.8-.9.4-.8.5-.6 1.1-.2 1.4-.6 1.4-1.4 4.2-5.6 2.6-2.1 3.1-1.5 10.6-1.4 13.4 2.4 1.4-.6.6-1.9-.9-1.9-1.8-1.4-2-.3 1.4-.7 4.3-1.2h-.6l3.1-1.5 3.6-.4 7.3.6 3 .7 12.5 4.6 3.2.3 3.3-.5 5-2.2.5-.4.4-.5.4-.6.5-.5 2.7-.6 3.1-1.3 1.7-.3 1.6.4 2.9 1.8 7.9 1.6 3.3-.2 3.3-.6 3-1.2 4.5-2.6.5-.4 1.5-2.6.7-1-.4-3 .2-1.5 1.9-2.1 2.8-1.2 9.9-1.5 1.5-.5 1-.9-1.3-.8-1.1-1.1-.4-1.5 1-1.9 2.2-2.4 1.2-1 1.5-.7 6.5-1.6 3.2-.1 7.1.8 3.4-.7 3-1.7 4-3.2 1.2-.6 1.5-.3h2l1.5.2 8.5 3 1.8.4 1.4-.5-1.2-.6-1.2-1.1-1-1.3-.7-1.4 3.3.4 1.7.5 1.2 1h-1.2l-.5.4v.6l.1.8.6 1.4.9.6 1 .3 2.4 1.5 6 1.9 1.2.1.8-.2.7-.4 1-.2 2.1.2 1 .3.5.5.5-.6v-.6l-.8-1.3-.7-.6-.8-.3-.5-.6-.3-1.3.7.7.9.3 2.3.2.2.6.4 2.6.4.6 26.1 2.5v-.7l-1.7-.2-1.3-1.3-.5-1.8.7-2 1.2-1.2 1.5-1 1.6-.7 12.2-2.8 3.5-.2.4.1-.1-2.9.1-1.2 3.5-5.7-9.3-4.6-1.5-2.3-2.8-1.1-1.9-.4-1.9.7-6.8-.6 2.8-3 .9-1.4 1.6-1.8 13.7-6.2 1.1-2.2-3.8-5-1.4-6.2-3.9-3.1-5.7-2.6-13.3-3-17.5-.8-9.4 1.3-11.8-.3-1-3.5.7-3.1 12.9-20.9 1.2-3.6-1.2-3.7 2.4-3.6.4-2.7 3.6-4.9 1.7-1 2.7-1 1.2-1.9-.1-3.2-.4-2.1.1-.6.2.1.3.4.3.3.3.3.3.4.5 1.3.6.9.9 1.1.8-.1 1.5-.5 3.8-1.7 5.1-.4 4.9.4 3.3-3.6-3.2-3-1.3-3-2.5-3 .3-4.2-.5-3-1-4-1.9-3.3v-3.8l.4-3.4 3.4-2.9 2.9-3.3 5.5.5 3.7-1.8 11.7-1.4 2.6-1.6 2.8-6 3.6-2.7 2.7-1.1 6.6 2.3 3.1.5 10.9-4.7 1.6-2.8 3-1.7.8-2.2-.2-1.4v-2.1l1-1.1.3-1.7-.1-1.1.6-1.2 1.4-.6 1.2-1.1 1.9-2.8-.6-2.2z" fill="#BABCC0" fill-opacity=".5" stroke="#707079" stroke-linecap="round" stroke-linejoin="round"/><path fill-rule="evenodd" clip-rule="evenodd" d="M636.2 87.1l.5-2-1.6-2.3-1.4-1.7-1.1-12.5-2.8-1.8-2.6-2.5-2.6-1.6-3.6.1-1.8-.3-.8-1.2-.5-1.7-1.2-1.2-3-1.6-2.5-2-4.1-4.8-6.6-6.1-.4-.7-.2-1-.2-1.9-.3-.5-3.2-1.5-.3-.2-.3-.5-.9-.6-.1-.4-.3-.6-1.2-2.2h-.8l-.7-.2-.4-.1-.5-.3-.5-.5-7.6-15.7-1.7-2.9-2.3-.5-1.1-.2-1.1-.2-1.3-.3-1.2-.5-1-.6-.6-1-.3-1.4-.3-1.8-.4-1.5-.8-.7-3.2-.5-2.2-1.4-3.5-4.3-.6-.3-.8-.1-1.7.1-.4-.3-.4-1.7-.2-.3-2.5-.1-1-.5-1.5-1.3-3.3-4.4-.7-1.4-.6-3.2-.5-1 .5-1.1 5.2-10.9 18-38 8.1-17.6 8.5-18.5.2-.9-.4-.5-.8-.5-1-1.4-.5-2.4.3-5.4 1.4-4.6 1.3-2.1.8-1.8 1.7-6.2.3-1.6-.1-1-.7-.7-.6-1-.3-1 .3-1.1 1.8-1.2 2.1-2 1.5-2.4.8-1.6 2.2-6.3.2-1.3v-2.7l-.6.2h-.9l-.6.2-1.7 1.5-1.1.7h-.6l-.6-.2-8.2-15.9 1.4-.3 13.9-16.9-1-1.1-.8-.3-.8-.3-1.5-.2-11.9.2-1.9-.6-.7-1.1-.3-1.4-.8-1.8-.7-2.5-1-1.2-.4-.1-2-.3h-1.1l-.6.1-.3.3-.4.9-.2.9v1.5l.1.8.2.5.1.5-.1.6-.7 1.6-.2.7.1.9.4 1.7.3.3.3.3.8.4.3.3.1.4.2 2.1-.1 1-.5 1.9-.1 1v1.3l-.1.8-.5 1.2-.4.7-.5.5-.8.2-.6.3-.5.5-.8 1.7-1.2 1.5-.3 2.2.1.6.2 2.1-.1.6-.1 1-.6 1.7-3 2.7-.6.7-.4 1.1-.2.7-.7 1.2-2 2.1-6.2-5.3v-1.2l.4-1.3.5-.9-.2-1.7-2.1-2.8-1.1-.8-1.9-.4-.8-1-.5-1.7.8-1.9.8-1.6 2.4-2.4.7-1.4.3-2-.5-5.8-.7-1.7-.4-1.5-23.4 5.4-2.1-4.7v-5.2l-2-3.9-.5-4.9-.4-1.5.1-1.4.2-1.5.2-8.7-1.9-3.1-1.7-2-.3 1-.3.7-.6 1.2-.1 2 .1 1.3.5 2-.4.7-2.6-.1-2.4-.5-1.3.4-1.1 1-.3 1.1.2 1 1.3 1 .2.9-.4.8-1.1.6-1.5.1-2.7-.3-1.6.1-1 .5-.3.3-.8 1.2-1.7 1.8-1.8.2-3.3-1.1-3.1-1.4-3.1-2-2.3-.7-6.6-.9-.1-.9-.4-.9-.5-.9-1.6-1.4-1.9-.2-.5.1-.9-.3-4.3-3.6-1.5-.8-2.1-.6-3.6-.2-1.6-.4-1.5-1-6.8-7.6-3.1-2.7-3.7-.5-1.2-1-.8-1.2-1-2.5-.3-2.2v-1.7l.1-2.7.6-2.2 1-1.3 3.4-1.4.9-.6.3-.4.1-.2-.4-.6-2.2-3.3-2.6-8.6.1-1.1.4-1.6 1.2-1.7.2-1.8-.3-3v-1.6l.7-3.1-.3-1.2-5.1-3.6-1.2.2-.5.2-.3-.6-.6-.7-.8-.9-1.5-.6-2.4-.2-1-.4-.9-.9-1.2-.7-1.4-.1-1-.2-2.1-.1-1 .2-1 .1-1.9-.2-.8-.5-.6-1.3-.6-4.1-.1-.3-.4-2 .1-2.2.5-1.7 1-1.2-.7-25-5.2-.3h-.3l-.7.7-1.5 1.1-.9 1.1-1.2 2.9-1.4 2.2-1.3.5-3.5-.7-2.4.4-1.6 1.4-2.6 3.8-3.9 3.8-1.9 1-1.1.4-3.5.6-.7.5-.8 1.7-3 3.1-1.5 3-2.4 6.7-2.9 4.4-3.8 3.9-4.4 2.7-4.8 1.2h-7.4l-2.3.4-2.1.8-.9.8-.1 1.4.7 3.7.1 1.7-.3 1.5-.8 1.5-1.4 1.3-4.3 3-1.7.6h-1.6l-4.5-1.2-6.5-.2-3.7-1.7-1.7-.3-3.5.1-6.3 1.8h-1.1l-2.1-.3-1.1.1-6.6 1.9H304l-10-2.2-3.1-1.9-3.2-1.4-4.2.6-1.9 1-3.6 2.5-4.8 2.2-1.7 1.2-.2.3-.4-.9-.7-2.7-.8-.9-1.1-.8-.4-.4-.5-.7-1.1-2.3-.7-3-.4-3.1-.1-2.6 1.7-5.7.1-1.9-.3-1.2-1.3-1.8-.4-1-.3-2.2.3-2.4.9-4.5.4-1 2.2-1.7 1-1.3 2.3-4.2 4.4-5.5 1.7-3 1.4-3.3 3.3-4.6.2-1.3-2.8-5-.3-1.6.2-6-.7-7.2-2-5v-.3l-.9-1h-.4l-.7.3-1.1.4.1-.8.8-1.6-1.6-5.5-.8-1.5-.7-.6-2-1-.6-.9v-.8l.7-1.8-.1-1-.6-.5-.9-.1-.7-.3-.3-.9.4-.6 1.7-1 .5-.8-.6-2.2-3.4-3 .1-2.4.5-1.3 2.2-1.4-1-.9-.6.1-.7.4-.7.3-.7-.4-.1-.8.4-1.1.1-.7-1.2.2-.2-1.6-.4-.8-2.3-1-1.2-.8-.5-.9-.5-2.6-.3-.7-.8-1.1-.3-.5v-.7l.3-.4.3-.5-.2-.8-.5-.5-1.3-.7-.5-.5-.1-.6-.2-2.1-1.4-.6-1.5-.9-.7-1.1.7-1.4.1-1.2-.8-1.8-2-3.2-2.4-5.2-.8-1-9.8-8.1-5.8-3.5-.7-.2-1.6-.1-.7-.2-.9-.6-2-2.3-3.9-3.1-1.4-2.3-1.4-1-.4-.6-.4-1.3v117.8l.1 4.7v183.7l-.1 2.6-2.4.5-.7.1-2.5-.3-.8.1-2 1.1-3.4 3.1-2.2.6-3.7.3-1.7.6-1.5 1.2-1.3.7-7.6.5-.6.3-.8.5-.5.6-.5.7-.6.8-.4.7-.7 1.6-.5.3-.7.3-.4.7-2.2 6.9-.8 1.2-1.3 1.1-1.6.7-6.1 1.6-1.1.5-.8-.2-1.8-1.5-1.1.1-1 .9-.8 1.1-1.3 2.5-.3 1.8.5 1.8 2.8 4.9v1.1l-.9.5-2.5.2-.5.3-.8 1.4-.6.6-4.3 2.3-3.2 1.1-2.9.1-1.2-1.7-.4-.3-.8-.3-2.7-.3-.5-.2-.8-1-1.9-3-1.3-1.2-15.8-2.3-14.5 2.2-2.7 1.5-1.6.5-.4-.2-.9-.8-.3-.2-.5.1-.6.4-.4.1-1.5.3-.8.2-.6.4-1.5.6-1.9-.3-3.1-1.2-1.7-.1-6.7 1-2.7.9h-1.4L74.1-82l-2.9-1.5-4.6-3.8-2.6-1.6-2.7-1.2-12.7-2.8-2.4.2-.8.4-1.5 1-.7.4h-1l-2.4-.7-1.7-.7-.3-1.7v-2.1l-.4-1.9-1.1-.8-1.3.3-1.4.7-1.6.4-3.1.4-3.3.8-2.9-.5-.1-2.6.9-3.5.5-3.4-.8-1.9-2.8-1-.6-1.5-.4-1.9-2.1-2.7-.6-1.5.3-1.3 1-1.1 1.3-.9 1.3-.3 1.2-.8.6-2.1.2-2.3-.1-1.8-.4-1-1.2-1.6-.6-.9-.3-1v-.9l-.3-.9-.6-1-.3-.9-.1-1-.3-1-.9-.4-2 .1-4.8 1.2-2.4-.5-1.6-2-.3-4 .2-1.9v-1.9l-.7-1.5L4-149l-1.5-.7-1-1.5-.8-1.8-1.1-1.2-.8-.4H-2l-1.5.4-.9.4-2.5 1.9-2-.5-.9.2-1.1 1.1-.9.4-.7-.1-.8-1-.6-.1-.4.3-1.3 1.5-.3.2-.6 6.8-.5.9-.3-.1-.4-.3-1.3.1-.3-.3-.3-.1-.5.3-.1.6.2.4 1.3 1.7v.6l-1.1.3h-1.6l-.4.3-.3.8.2.6.6.9.4 1-.2 1.1-.7.5-.7-.3-.8-.5-.6-.3-1.4.6-.3 1.6.3 1.7.5 1.3 1.6 2.5.6 1.5-.8.7-1.1.8-.4 1.7-.1 1.9-.2 1.5-.9 1.4-1.3 1.9-1.5 1.3-1.3-.2-.3-.8-.2-1.1-.4-.9-.6-.4-.8.3-5.7 5.6-2.9 1-2.1 1.1-2 1.3-1.4.6.2.9-.2 1.4-.5 1.2-.8.6.2.4 1.9 2.1 1.2 1 1.6 3.6.5.2h.7l.7.2.2.4.2.7.6 1.5.3.5-.2 1.8.4 3.1.8 3 .8 1.9 5.1 4.4 3.4 4.7.6 1.2 1.1 3.3.7 1.1 4.8 4.2 1.2 2-.4 1.4.3 2 .6 2 .8 1.3.2.8v2l.3.7.8.9.4.8 1.6 5.2 1.4 1.6.2.4.3.9 1.5 1.6.3.5 2.8 8.6.6.9 2.2 6.2.3 3.3.5 1.9 1 .8v.9l1.9 5 .1 1.2v2.3l.3 1.2h-.4l2 7.1v.9l.2.9.3.6.4.5.2.4.4 3 4.8 11.1 1.7 6.9.3 3.4 1.1 2.9 3.9 7 .2 2.3.3.7.7 2.8.2 2.2.3.9 4.9 8.5 1.4 1.7.7 2 4.2 7.8 1.9 2.2-.3 3.3 2 3.8 4.4 6.1 1 3 .6 3.2.4 1.3 4.2 8.4 5.2 7.5.8 1.4 1.6 4 1 1.5.3.6.8 2.1.3.3 1.3 2.1 4.1 1.2.6-9.4 3.7-5 1-6.3 4.5-4.2 1.8-6.1 2.2-2.3 1.6-1.3 1.4-.1 1.1.2 1.3.5 1.5 1.1 1.9 1.1 2.8 1.3 3.3-1.4 3.5-2.1 3.6-5.3 3.2-5.9 1.9-6.7 2.4-4 1.3-2.8 4 2.3 1.1-2.6 2.2-1.8 4-.4 5.3 4.1 4.6 2.6 3.3 2.5 2.8 3.5 2 3.4 3.4 3.5 7.2 2.5v10.5l-2.4 3.4 1.6 5.2-1.7 5.9 2.4 16.5 1.7 4.5 2 2.4.8 1.3v1.3l-.5 2.8 1.4 8.2v3.7l.6 2 2 1.8.4 2.1.9 1.3.5 2.1-.4 1.9-.1 3.4-.4 2.2 1.3 7.6-.4 4-1.6 3-1.3 5.9 4 .2 1 .4 1.1.5.8.6.6.6.3.2.4.2.5-.1.4-.1.7-.5.4-.1h.5l.4.2.4.2.4.2.8-.1 1.1-.6 2.7-2.2 1-.5.4.5-1.2 4.5v1.1l.3.8 2.1 1 .9.6.7 1 1.3 2.8.5.8.6.3.7-.1.6.1.4.2.7.8.4.2.4-.1.4-.2.4-.2.4-.2.4-.1h.5l.4.1.3.2.4.3.3.3.3.4.7 1.3.4.4.4.4.4.1.5.1 1-.1.3.2.2.6-.2 1.9v.8l.2.9v.6l-.3 1.3.1.6.6 2.1.7 4.7-.3.8-3.2 3.3-1.6 2.8.6 4.6.5 2.2.6 1.4 3 5.7v2.2l-1.1 8.3 4.6 4.8 4.4-2.1.4-.8-.3-.4-.3-.3-.2-.4-1-2.6.4-2.8 1.4-3.6 1-3 1.5-1.4 1.7 1 1.5-.3 2.4-1.1 2-2.7 3.5-1.7 1.9-1.4 5.1-.2 4.2-1.2 6.9-5.6 2.5-3.2 2.1-1.2 4.7-4.9 2.2-.3 1.3 1 1 2.2 1.1 1.9v3.6l-5.6 7.4-2.4 2.6-1.9 1.4-.3 4.1 1.3 5.7 2.1 6.7 3.7 7.9 1 4.7 1.8 2.4 1.9 1.5 1.7 1 1.7 1.2 2.2 3.1 2 1.9 1.6 2.8 1.7.8 3.2 3.1 5.1-.9 4.4-2.2 1.8.3 2.9 1.4 7.3-.2 6-5.1 1.5-4.6.6-4.9.8-3.5 3.2-3.5 5.5-2.1 4.4-.5 3.4-.9 5.8-2.8 4.2-8.4 1.4-4.8 3.5-1.4 1.3-1.1 1.3-1.4 2.5-3.4 5.8-2 3.1-.6 3.4-2.7 4.3-2.5 2.2-4.3 3.7-1.9 2.4-.4 3.2.7 2.9-1 2.9.8 2.6 1 4.9 1 4.6-1.1 4.4-3.1 2-3.3 4.4-5.3 1.8-.4 1.6-3.3-1.3-3.6-.5-.8-.1-.6v-.4l.7-3.5-.1-2.8.2-1.4.2-1.5.5-1.1.6-1.8 3.1-.6 8.9-22 2.2-3.1 14 7.3 2.9 2.2 3.5 3.8 3.3 5 6.9 2.3 4.5 2.7 5.3.3 3.3 1.4 5.6.3 3.5 1.3 2.8 1.4.7 3.2.1.9 2.4 3.9 8.4-7.7 1.6-1.8 1.6-3.2 5.3-7.3 4.8-2.7 3.4-3.5 9.4.1 1.9-.4 3.2-1.3 2.7-.3 5.3.7 6.5 3.7 1.8 1.6.8 1.7-.2 1.9 3.5 2.8 2.8-1.5 2.6-1.8 2.2-3.2 2.4-.9 2.1.3 3.4 4.7 6 1.5.6-2.8 2-.8h4.6l7-2.6 12.5-1.3.9-13.4.9-4.9 1.5-2.2 1.1-4.4v-1.9l10.4-.3 5.3-.8 3.3-1.7 2.9-.8 1.8-2.2 3.1-1.4 4.2-3.1 1.1-.5 6.1-1.3 11.5-5.5 10.2 2.3 2.2-1.5.6-4.4 2.7-3.1 1.7-2.6.4-2.2 1.1-1.7.9-1.9-.4-3 2.1-3.2.5-2.2-.6-3.4-.8-2.2.3-1.8 1.8-2.2z" fill="#BABCC0" fill-opacity=".5" stroke="#707079" stroke-linecap="round" stroke-linejoin="round"/><path fill-rule="evenodd" clip-rule="evenodd" d="M958-194.5l-.3-1-.3-.7-.4-.2-2.6-.9-.3-.2-.2-.4v-.7l.3-1.1.1-.7-.2-.5.3-.8 3.6-1.7-1.7-.5h-1.2l-.5.1-1 .3-.4.2-.3.2-.3.3-.2.4-.1.4-.1.4.1.9-.1.4-.2.3-.4.1-.9-.1-.5.1-.4.1-.3.2-.2.1-.5.5-.4.3-.4.1-.5.1h-.5l-.8-.7-5-6.4-.3-.3-.3-.3-.2-.4-.1-.4.1-.6.2-.4.1-.4-.1-.4-.5-.4-.9-.6-.4-.3-2.4-2.7-.1-.4.1-.5v-.5l-.2-.4-.5-.4-.4-.4-.3-.5-.3-1.6-.4-1.2-1.1-1.6-2.6-1.6-.6-.2-1.1-.2-.5.2-1.3.5-.5.2h-.6l-.5-.1-.4-.2-.3-.6v-.5l.1-.5.2-.3.1-.3-.2-.3-.4-.2-.6-.3-1.6-.3-.6-.5-.3-.3-.4-.4-.8-.4-1.5-.5-1-.7-.6-.5-.6-.8-.3-.3-.6-.3-.9-.1-1.7-.2h-1.6l-1 .2-.4.3-.6.6-.3.2h-.4l-.6-.2-.6-.7-.3-.5-.7-1.4-.6-1.8-.4-.8-.2-.3-.3-.4-.6-.5-.2-.4-.1-.4.1-.9-.1-.3-.2-.7.1-1.2-.4-.3h-.6l-.7-.2-3.4-2.3-1.5-.2-.9.1-.7.4-.8.7-.6.3-.7.1-.7.4-.6.6-.9 1.2-.6.4h-.8l-.5-.4-.4-.5-.7-.3-.7.3-.8.3-.8.2-.8-.4-.8-.8-.6-.2-.6-.1-.9-.3-5.8-3.9-3.4-1.3-2.2 1.1-.2.8.2.1.5-.2.6.4 1.3 1.2.2.8-1.2.3H871l-1.1.1-1 .5-3.4 3.2-1 .3.6-2 .6-1-.3-.7-2.1-.9-.3-.9-.9-.9-.8-1.1-.4-.3-.5-.2-.9.1-.6.1-.4.3-.8 1-.4.2-.4.1-.6-.2-.7-.6-.3-.5-.3-.5-.2-.5-.3-1.4-.5-.4-.7-.3-1.8-.1-1.6.1-1.4-.2-2.6-1.4-1.3-.9-.3-.3-.4-.4-.5-.1h-.8l-1.4.6-2.1.3-.9-.7-.3-.3-.3-.5-.2-.4-.5-1.8h-.9l-1.5 1.4-.5-.4-.5-.5-1-1.1-1.5-1.2-1.5-.9-2.1-.9-.9-1.2-3.1-5.6-.7-2 .6-.9.5-.4-.6-.9-1.4-1.3-.8-.4-.9.2-1.7 1-1.1 1.1-.9 1.4-1.2 1.1-1.7.5-3.5.5-1.8.5-1.2.7-.3.7v.7l-.1.5-.7.4-.8-.1-.6-.6-.4-.7-.5-.3-5.3.7-1.2-.1-.2-.6-.9-1.5-.9-1-.5.5-.7.3-1.4.1-1 .5.5 1.7-1.7.1-.9.2-.6.2-1.1.9-.3 1.8-.1 1.7-.2.9-2.3 3.5-.8.5-4.7 1.2-1 .1-1-.4-2.4-2.3-1-.5-2.2.4-1.8 1.5-3.2 3.8-2.9 2.2-1.7.8-.7-.8.2-.8.3-.8v-.7l-.8-.3-.6.1-1.3.4-7.4.2-3.4-.5-2.5-1.3-1.5-2.7-1-.9-1.1.8-.3 1.3.3 5.5-1.9-1.2-2.3-2.2-.4-.2-1.6 1-.9.9-.5.7-.7-.3-1.1-1-.4.2-.9.8-1.7.5-1.3.8-2.2 2-.3.5-.2.6-.2.6-.1.7-.2.8h-.6l-.6-.3-.1-.3-.6-.2-.9-.4-1-.3-1.2.4-1 .9-2.1 2.3-.5.8-.1 1.5.3 1.2-.1 1-1.1.9-1.8-.6h-.9l-2 2.4-1.2 1-4.4 1.3-1.6 1.9 1.7 2.4 2.6 2.3 1.4 1.8-.1 4.9-.2.1-.4-.1-.6.4-1 1.5-.4 1.6.5 1.3 1.9.5.8.1.8.2.5.5.2.6-.3.3-7.5-.1-1.4-.5h-2.2l-.9.2-.8.7-.7 1.6-.1.2-.3.2-.6-.3-.7-.6-.5-.2-2.1.4-1.8 1.1-1.3 1.8-.5 2.2.1.8.1.6-.1.5-.6.7-.4.1-1.3.3-.4.2-6.8 6.4-1 1.4-.5.7-.2.2-1.8 3.3-.1.5-.1.4.1.5.2.4.8 1.5.2.4v.5l-.1.4-.2.4-.3.2-.4.3-.5.1-.6.1h-.7l-.6-.2-.4-.4-.4-.8-.2-.6-.1-1.2-.4-1.4-.3-1.9-.1-.3-.4-.3-.8-.2-5.1-1.1-1-.1-1.7.2h-.5l-.6-.3-.7-.5-1.1-1.2-.9-1.2-.7-.4-1.7.1-7.9 4.6-2 1.6-.4.5-.6.8-.5.3-.6.1-.4-.2-.9-.2-1.5-.9-.8-.3h-.9l-.5.4-.8 1.1-.4.3-.5.2-1.3.7-.8.2-.4-.1-.7-.4-.5-.1-.4.2-.4.4-.5.6-4.8 1.3-1.2.7-5.4 5-.6.3-.9.3-1 .1h-.8l-.8.1-.8.7-1.3 1.8-.3.2-.6.3v.7l.4 1.3-.5 1.1-1.1 1.6-1.2 1.4-1.1.6-.4.3-.8 1.2-.3.3h-1.8l-.9.1-.7.5-.4.5-2 3.6.1.6.2.5v.6l-1.5 2.8-1.1 1.4-1.1 1h-.6l-.9-.2-.7-.1-.7 1.1h-.1v2.7l-.2 1.3-2.2 6.3-.8 1.6-1.5 2.4-2.1 2-1.8 1.2-.3 1.1.3 1 .6 1 .7.7.1 1-.3 1.6-1.7 6.2-.8 1.8-1.3 2.1-1.4 4.6-.3 5.4.5 2.4 1 1.4.8.5.4.5-.2.9-8.5 18.5-8.1 17.6-18 38-5.2 10.9-.5 1.1.5 1 .6 3.2.7 1.4 3.3 4.4L554-4l1 .5 2.5.1.2.3.4 1.7.4.3 1.7-.1.8.1.6.3 3.5 4.3 2.2 1.4 3.2.5.8.7.4 1.5.3 1.8.3 1.4.6 1 1 .6 1.2.5 1.3.3 1.1.2 1.1.2 2.3.5 1.7 2.9 7.6 15.7.5.5.5.3.4.1.7.2h.8l1.2 2.2.3.6.1.4.9.6.3.5.3.2 3.2 1.5.3.5.2 1.9.2 1 .4.7 6.6 6.1 4.1 4.8 2.5 2 3 1.6 1.2 1.2.5 1.7.8 1.2 1.8.3 3.6-.1 2.6 1.6 2.6 2.5 2.8 1.8 2.9-.4h1.2l4.3-.5 2.4.3.3.4.2.5.3 2.1.1.5.2.4.3.3.4.2 1.9.4.5.1 1.4 1 .9.3 2.2.3 1.5-.7 2.3-1.3 4.8-3.5 1.8-1.7.8-1.2v-.5l-.3-1v-.5l.1-.4.2-.4.4-.4 1-.5h.6l.5.2 2.4 1.9 1.3-.8.4-.3.8-.7 1.1-.9 1.3-.6 4.3-1.3h.9l2.7 1 2.1.1.4-1.3-.1-1.5.5-.8 1.9.4 1 .9.7 1.2.8 1 1.5.7 1.5.2 1.2.7.5 1.7 1 1.4 2.4.2 9.8-1.9.5.3.7.7 1.1 1.5.4 2.3.2.6.9.8 3.3 1.8 1.2.4 3.4-.1 1.7.2 1.3.6v.5l-.6.9.7-.1 1.5-.8 1.1-.1.5.3.4.3.9.2.6-.2.7-.7.5-.3.6-.1h.6l.6.1.7-.3 1.6-1.2.6-.3 2 .2 1.1 1 1 1.2 1.3.6.9-.3 1-1.3 1.2-.3h2.1l1-.3.8-.8-.5-1.7.7-1.5 1.4-1.1 1.5-.5 2.9.2.7-.3-.5-1.7-1.6-1.5-.5-1 .8-.5 3.6-.7 1.7.4 1.4.7 1.4.1 1.5-1.2v-.7l-.4-.7v-.6l1.2-.3 3.1.3 1-1.1.6-.4h1.3l.3-.1.3-.5h.4l.3.2.4.4.3.4v.2l1.8.1.9-.1.7-.3 1-1.4.4-.9-.4-.4-.9-.2-.7-.6-.3-.7.6-.9.6.1 1.9.9.6.2 1.6-1-1-.9-1.5-1.1.2-1.5 1.5-.6 1.7.2 1.6-.1 1.2-1.6-.5-.8-.6-.4-.8.1-.7.5-.7-1.7-.9-1.9 1-.4.5-.2h.5l.1-.1-.8-.1.1-1.3-1.7-4.7-.1-2.5 1.6-4.1 1.1-1.2.1-.8-.7-.6-1.2-.3h-1.6l-1 .2-.7-.3-.9-1.4-.5-1.3-1.1-4.1-1-1.7-3.7-3.1-1.4-1.7-2.1-5-6.2-14.8-.7-1.3-2.2-3.3-1-.9-1-.6-1.1-.9-.6-.3 1-2.1v-1.4l.6-.8h.8l.7 1 .5-.6.6-1.4.4-.4h.7l.2.4.2.6.7.2.3-.2 2.4-2.6.5-.3 2.1-.8 2.2-.3.8-.3 1.3-.7 2.1-.4 1.7-.7 2.4-1.5.4-.3.1-.2.5-.8.4-.9.2-1 .4-.3 1.7.1.4-.4.4-1.5.8-1.4 3.1-3.4.5-.4.3-.5.2-1.1-.3-.7-.4-.5-.3-.5.2-.6.6-.6.7-.2.7-.4.8-1 .2-.8.1-2 .2-.7 1.3-.8 3.1-1 .6-.2.8-.6-.2-1-.4-2v-.8l.5-.8.8-.5.7-.3.6-.3 4.3-5.3 1.7-3.2-.1-.5-.2-1.5.5-.6.5.6.4-.2.7-.3.4-.1-.6-.9-1-1-.3-.8 1.2-.3.9-.4 1-1 1.4-2.1.3-.1.4.1h.3l.1-.3v-.7l.1-.2.2-.3.1-.5.1-.7v-1.1l.6-.7 1.2-.4.8-.7-.5-1.4 8.6.5 2-.9.7-1.3.5-1.3.6-1.2 1.1-.6 1.4.2.9.8.7.9.9.5h2l.7-.2.1-.5v-.7l.3-.7 2.9-3.8 3.3-3.6.3-.5 2-3 1.1-1.3.7-1.1.7.3 4.1-.4.9-.1 1.6.7 1.7.2 1.8-.3 1.5-.6 1.4-1.3 2.1-3.5 1.4-1.5 1.6-.6 10.5-.7 1.5-.4 4.3-2.9 1.2-.1 1.4 1 1 1.2.7 1.4.4 1.7.6 3.5.8 1.3h3.3l1.2 1 2.2 4.1.6.5 2.3.4h.1l1.2.5 1.1.7.6-1 1.6-4.1.4-1.6.2-.5.3-.6 2-1.7.2-.4.2-.5.1-.8-.1-1.8.2-.6.4-.6 1.5-1.3 1.1-1.5 5.2-1.9 4-.8h.5l1.7.6.5.1.7-.1.8-.2 1.3-.5.9-.2.7-.4.5-.4.3-1 .1-.6-.1-.5-.3-.6-.1-.3-.1-.4.1-.4.3-.9.8-1.1 1.6-1.7.4-.3 1.3-.5 3.9-.7 2.6-3.2.4-.4.6-.4.9-.5 2-.6 1.3-.7 1.1-1.2 5-6.4.5-.4.9-.5.9-.2 4.4-.3.9-.2h.1l.1-.1.4-.5.5-.8.9-2.1.6-1.1 1-1.2 2.1-1.5.5-1 .4-2.7-.3-1.4-.4-.9-.3-.3-.3-.3-1.6-1.3-.3-.3-.2-.4-.2-.4-.2-.4-.1-.5.1-.9.4-1.1.8-2.1 1-1.6.4-.3.2-.3.3-.5v-.6l-.1-3.1.1-.6.1-.6.5-.7.8-1.2.6-1.2 1.2-3.5.3-.6.3-.4.3-.4.1-.5-.1-.7-.2-.5-.9-.8-.3-1v-1.1l.4-3.4v-.6l-.1-.5-.1-.4-.3-.4-.9-1.4-.2-.4-.2-.4-.1-.5.1-.6.2-.6.4-.6.4-.4.7-.6.3-.3 4.3-2.3.3-.2.2-.7.1-1-.3-2.1z" fill="#BABCC0" fill-opacity=".5" stroke="#707079" stroke-linecap="round" stroke-linejoin="round"/><path d="M989.9 108.9l-1-.6-.2-.2-.3-.4-.1-.4-.1-1.3-.1-.6-.2-.4-.2-.2-.5-.3-.8-.4-.4-.2-.3-.5-.2-.6v-1.7l-.1-.7-.5-.7-.1-1.1-.1-.6.1-.7v-1.2l-.4-.8-.8-1.1-1.8-1.3-.9-.2-.4-.6-.1-.5v-.5l-.1-.5-.2-.5-.2-.4-.3-.3-.4-.2-1.9-.1-.5-.2-.4-.3-.6-.6-.4-.2h-.3l-.3.2-.5.1-.5-.1-.4-.3-.4-.5-.2-.5-.2-.6-.4-.5-.8-.4-.2-.6-.1-.5v-.6l-.1-.3-.3-.3-.6.2-.5.1-.4.3h-.6l-.8-.3-1.4-.8-1.8-1.5-2.7-1.7-1.1-.9-.1-.5-.4-.5-.6-.3-1.4-.1-.6.3-.4.4-.2.2-.3.1-1.1-.7-1.1-.3-1.8-.9-1.1-.2-.8-.5-.7-.3-.5-.1-2.6.7h-.5l-.6-.1-.7-.3-1.8-1.3-2.5-.9-5.3-3.8-.4-.2h-.9l-.5.2-.3.2-1.4.9-.5.2-.4.2h-4l-.4.1-.3.2-.6.8-.3.3-.3.2-.5.1h-.5l-.5-.1-1.8-.7-2.7-1.6-11.8-3.2-.8-.4-.6-.4-.1-.9.1-1.4-.1-.6-.2-.8-.4-.6-.4-.3-4.9-2.5-.4-.1-.2.1-.4.1-.3.2-.3.3-.2.5-.1.5v2.8l-.1.5-.2.5-.1.4-.3.4-.3.2-.5.1-7.2-1.5-.4-.2-.4-.3-.8-1-1.7-3-.4-.2-.5-.1h-1.1l-.5-.1-.5-.1-.4-.3-.3-.4-.3-.5-.6-1.4-.1-.4v-.8l.8-3.1.1-1v-.7l-1.3-2.2-.2-.5.1-.7.3-1.1 2-4.6.3-.3.3.1 5.1 2.2.4.1.7-.5.8-1 1.4-2.4.8-.8.7-.3.8.4.5-.1.6-.5.9-1.5.5-.7.5-.5 1.1-.6.4-.2.3-.2.1-.4v-.3l-.2-.5-.5-.8-.1-.4v-.3l.4-.4.4-.2 1-.3.7-.5 1-.8.4-.2h.4l1.5.3h.4l.5-.3 1-1.8.2-.4 1.6-1.4.3-.4.3-.5.1-.8v-.6l-.2-.7-.3-.8-3.2-2.8-3.9-4.8-.5-1-3 1.9-8.8 5.7-4.8 2-5 1.1-6.8 2.6h-2.6l-3.7-1.4-1.2-.2-1.3.3-3.2 2-1.9.6-3.7-.5-1.8.3-1.5 1.3-.6 1.2-1.3 2.4-1.2 1.2-.7.6-.9 1.3-.6.6-.7.3-2.2.3-1.4.6-1.6.9-1.1 1.3-.2 1.7.8 1.1 1.1.6.9.7.2 2-.5 1.9-1 1.2-6.4 5-.6 1.1.1.7.9 1.5.3.9-.1.7-1.3 4-.3.6-.6.8-.6.5-.6.3-.7.5-.4.8-.5 1.8.1 1.4.2 1.4-.1 1.7-1.8-.8-8.9-.8-1.6-.5-1.5-.8-.7-.5-.6-.6-.7-.5-.8-.3-.7.1-1.4.7-.8.1-3.2-.4-2.6-.8-2.3-1.5-4.1-4.6-4.6-3.5-.4-.8-.2-.8v-.7l-.3-.8-1.8-2.6-2-1.9-.2-.9-.3-1-2.7-1.2-1.2-1-.8-1.4-.6-2.1-.6-.6h-1.2l-1.6.7-.5.1-.8-.1-1.5-.5-.1.1h-.5l-.5.2-1 .4.9 1.9.7 1.7.7-.5.8-.1.6.4.5.8-1.2 1.6-1.6.1-1.7-.2-1.5.6-.2 1.5 1.5 1.1 1 .9-1.6 1-.6-.2-1.9-.9-.6-.1-.6.9.3.7.7.6.9.2.4.4-.4.9-1 1.4-.7.3-.9.1-1.8-.1v-.2l-.3-.4-.4-.4-.3-.2h-.4l-.3.5-.3.1h-1.3l-.6.4-1 1.1-3.1-.3-1.2.3v.6l.4.7v.7l-1.5 1.2-1.4-.1-1.4-.7-1.7-.4-3.6.7-.8.5.5 1 1.6 1.5.5 1.7-.7.3-2.9-.2-1.5.5-1.4 1.1-.7 1.5.5 1.7-.8.8-1 .3h-2.1l-1.2.3-1 1.3-.9.3-1.3-.6-1-1.2-1.1-1-2-.2-.6.3-1.6 1.2-.7.3-.6-.1h-.6l-.6.1-.5.3-.7.7-.6.2-.9-.2-.4-.3-.5-.3-1.1.1-1.5.8-.7.1.6-.9V73l-1.3-.6-1.7-.2-3.4.1-1.2-.4-3.3-1.8-.9-.8-.2-.6-.4-2.3-1.1-1.5-.7-.7-.5-.3-9.8 1.9-2.4-.2-1-1.4-.5-1.7-1.2-.7-1.5-.2-1.5-.7-.8-1-.7-1.2-1-.9-1.9-.4-.5.8.1 1.5-.4 1.3-2.1-.1-2.7-1h-.9l-4.3 1.3-1.3.6-1.1.9-.8.7-.4.3-1.3.8-2.4-1.9-.5-.2h-.6l-1 .5-.4.4-.2.4-.1.4v.5l.3 1v.5l-.8 1.2-1.8 1.7-4.8 3.5-2.3 1.3-1.5.7-2.2-.3-.9-.3-1.4-1-.5-.1-1.9-.4-.4-.2-.3-.3-.2-.4-.1-.5-.3-2.1-.2-.5-.3-.4-2.4-.3-4.3.5h-1.2l-2.9.4 1.1 12.5 1.4 1.7 1.6 2.3-.5 2-1.8 2.2-.3 1.8.8 2.2.6 3.4-.5 2.2-2.1 3.2.4 3-.9 1.9-1.1 1.7-.4 2.2-1.7 2.6-2.7 3.1-.6 4.4-2.2 1.5-10.2-2.3-11.5 5.5-6.1 1.3-1.1.5-4.2 3.1-3.1 1.4-1.8 2.2-2.9.8-3.3 1.7-5.3.8-10.4.3v1.9l-1.1 4.4-1.5 2.2-.9 4.9-.9 13.4-12.5 1.3-7 2.6h-4.6l-2 .8-.6 2.8.8 2.4-.7.6-.5 1.9-.9 1.1-.3 2.8 2 1.1 1.6 2.3.6 2.2-1.9 2.8-1.2 1.1-1.4.6-.6 1.2.1 1.1-.3 1.7-1 1.1v2.1l.2 1.4-.8 2.2-3 1.7-1.6 2.8-10.9 4.7-3.1-.5-6.6-2.3-2.7 1.1-3.6 2.7-2.8 6-2.6 1.6-11.7 1.4-3.7 1.8-5.5-.5-2.9 3.3-3.4 2.9-.4 3.4v3.8l1.9 3.3 1 4 .5 3-.3 4.2 2.5 3 1.3 3 3.2 3-3.3 3.6-4.9-.4-5.1.4-3.8 1.7-1.5.5-.8.1-.9-1.1-.6-.9-.5-1.3-.3-.4-.3-.3-.3-.3-.3-.4-.2-.1-.1.6.4 2.1.1 3.2-1.2 1.9-2.7 1-1.7 1-3.6 4.9-.4 2.7-2.4 3.6 1.2 3.7-1.2 3.6-12.9 20.9-.7 3.1 1 3.5 11.8.3 9.4-1.3 17.5.8 13.3 3 5.7 2.6 3.9 3.1 1.4 6.2 3.8 5-1.1 2.2-13.7 6.2-1.6 1.8-.9 1.4-2.8 3 6.8.6 1.9-.7 1.9.4 2.8 1.1 1.5 2.3 9.3 4.6-3.5 5.7-.1 1.2.1 2.9 13 3.1 8.1.8 3.3 1.2 1.6.4 13.5 1.2 4.9 2.1 1.1.8 1.3.7 9.2 1.1 1.4.6 2.7 2.4 3.3 1.7 6.5 1.8 1.4.1 4.8-.9 1.8.2 4.1 1.1 5.2.2 1.6.5 1 1.4h.5l.5-.7 1.3-1 .2-.8-.3-.7-.7-.4-.7-.6-.3-1.1.5-1.4 3.6-3.3.8-.6 1.3-1.6.8-1.8-1-3.7 1.1-1.4 1.8-1 4.5-1.3 6.8-.9 6.9.1 6.4 1.8 2.7 1.1 2.6 1.9 2.7.5 2.1 1.2h1.8l3.8-.5 2.2.3 4 1.3 2.3.3 2-.5 1.5-1 1.7-.5 2.4.7.2-.3.2-.2.1-.8-.7-.8-1.4-2.3-2.2-1.6-.3-.5-.4-.8-1.4-.7-.4-1 .2-2.2 1.3-5.1 1.4-2.9 2-2.5 2.4-1.9 5.6-2.8 6.2-1.9 6.7-1 10.3.5 10.1 2 2.8 1.7 1.8.8 1.3-.2 1.5-.7 2-.1 6.4 1 3.1-.2 3-.8 7.2-3.7 1.7-.2.5-.4.5-1.7.5-.4 1-.1 7.2-3.1 2.5-1.5 3.7-.5 1.5-.4 4.2-3.7 1.7-.6 1.8-.1 1.5-.4 6.6-3.5 1.5-.3.7-.2.6-.6.4-.7.2-.7.2-.6.6-.6 1.2-1 5.7-2.7.7-.9 8.1-5.6.3-.9.2-.3.2.1.2.2.4.2h.3l1.8-1.1 4.1-3.3 1.8-1.9.6-2.3.8.4.6.1.6-.2.6-.3 1.7-2.6.4-.2.8-.7 5.4-2.1 2.5-2 6.8-7.2 1.3-.8 3.7-1.4 1.5-.3.8-.4 1.5-1.6 3.6-1.7.3-.5.1-.5v-.4l.1-.3 1.1-.7.9-1.4.7-.7 2.3-.8 7.8-6.5 1.6-1.9.7-1.9.6-2.7 1.4-2.4 1.9-1.9 4.2-1.2 2.3-1.2 3.5-2.6 3.8-2 1.7-1.4.3-1.4 1.2-.7 2.4-2.1 2-1 8.4-6.6.5-1 .5-1.7 1.4-1.8 2.8-3 .6-.5 1.3-.6.6-.6 1.8-2.5 10.1-9.5.7-.8 4-2.5 7.8-10.7 9.3-10.1 2.1-3.2.7-1.7.3-1.4.8-1.1 5-2.3.1-.4.3-1 .1-.4.2-.2.8-.4 1.4-2.5.2-.8.5-1.4 1.1-1.7 2.5-2.7 2.5-1.8.8-1.2.3-2.2.4-.5 2.2-1.3 1.5-3.3v-.4l-.3-.4-.1-.4.4-.6.4-.1.8.1h.4l.8-.3h.7l.7-.2 1.9-1.4 3-1.1 1.2-.7 2.4-2.7 1.4-1.1 1.7-.4.4-.2.6-.5.5-.7.5-1.7.7-.5 1.7-.7 4.6-5.7.6-1.5 1.5-1.2 1.7-.9 4.7-1.3 1.4-.7 11-10.5 4-4.7 2.4-5.3 2.2-1.5 5.5-7.4-.3-.4z" fill="#BABCC0" fill-opacity=".5" stroke="#707079" stroke-linecap="round" stroke-linejoin="round"/><path d="M73.108 345.388h-1.56c-.712-.832-1.544-1.248-2.496-1.248-.928 0-1.712.332-2.352.996-.632.664-.948 1.464-.948 2.4 0 .92.316 1.724.948 2.412.64.688 1.416 1.032 2.328 1.032.456 0 .896-.104 1.32-.312.432-.216.8-.504 1.104-.864h1.596a4.623 4.623 0 01-1.704 1.74 4.492 4.492 0 01-2.328.624c-1.256 0-2.332-.456-3.228-1.368-.888-.92-1.332-2.012-1.332-3.276 0-1.272.444-2.352 1.332-3.24.896-.888 1.976-1.332 3.24-1.332 1.008 0 1.912.288 2.712.864.536.384.992.908 1.368 1.572zM80.723 352h-1.248v-1.032h-.024c-.224.392-.54.692-.948.9-.4.2-.836.3-1.308.3-1 0-1.84-.328-2.52-.984-.672-.656-1.008-1.484-1.008-2.484 0-1.008.336-1.848 1.008-2.52.672-.672 1.512-1.008 2.52-1.008.464 0 .896.096 1.296.288.4.184.72.46.96.828h.024v-.936h1.248V352zm-1.224-3.312c0-.672-.216-1.236-.648-1.692-.432-.456-.984-.684-1.656-.684a2.16 2.16 0 00-1.632.696c-.432.464-.648 1.024-.648 1.68 0 .632.22 1.18.66 1.644.44.464.976.696 1.608.696.648 0 1.196-.228 1.644-.684a2.276 2.276 0 00.672-1.656zm10.043.072c0 .944-.324 1.748-.972 2.412-.64.664-1.436.996-2.388.996-.48 0-.936-.092-1.368-.276a2.111 2.111 0 01-.972-.852h-.024v3.18H82.57v-8.868h1.14v1.02h.024c.56-.8 1.348-1.2 2.364-1.2 1.008 0 1.832.344 2.472 1.032.648.688.972 1.54.972 2.556zm-1.248-.072c0-.64-.224-1.196-.672-1.668a2.116 2.116 0 00-1.608-.708c-.632 0-1.16.232-1.584.696a2.372 2.372 0 00-.636 1.656c0 .656.212 1.216.636 1.68.432.456.972.684 1.62.684.64 0 1.172-.228 1.596-.684a2.32 2.32 0 00.648-1.656zm8.958-.096c0 .208-.012.416-.036.624h-5.508c.128.528.388.964.78 1.308.4.336.868.504 1.404.504.392 0 .76-.1 1.104-.3.352-.2.616-.472.792-.816h1.248a3.504 3.504 0 01-1.248 1.644 3.283 3.283 0 01-1.944.612c-.936 0-1.736-.348-2.4-1.044-.656-.696-.984-1.516-.984-2.46 0-.968.328-1.792.984-2.472.656-.68 1.464-1.02 2.424-1.02.936 0 1.732.336 2.388 1.008.664.672.996 1.476.996 2.412zm-1.248-.336c-.032-.544-.264-1.004-.696-1.38a2.17 2.17 0 00-2.916 0c-.424.376-.652.836-.684 1.38h4.296zm9.71-3.948h-1.704V352h-1.296v-7.692h-1.704v-1.188h4.704v1.188zm7.145 4.344c0 .96-.348 1.788-1.044 2.484-.696.688-1.544 1.032-2.544 1.032a3.494 3.494 0 01-2.532-1.032c-.704-.696-1.056-1.532-1.056-2.508 0-.968.352-1.784 1.056-2.448a3.564 3.564 0 012.532-1.008c.984 0 1.828.336 2.532 1.008.704.672 1.056 1.496 1.056 2.472zm-1.932 1.68a2.336 2.336 0 00.684-1.68c0-.648-.228-1.2-.684-1.656a2.256 2.256 0 00-1.656-.684c-.648 0-1.2.232-1.656.696a2.256 2.256 0 00-.684 1.656c0 .648.228 1.204.684 1.668a2.236 2.236 0 001.656.696c.648 0 1.2-.232 1.656-.696zm11.547-4.98l-2.46 6.648h-.696l-1.44-4.476h-.024l-1.44 4.476h-.684l-2.484-6.648h1.332l1.476 4.32h.024l1.38-4.32h.816l1.38 4.32h.024l1.464-4.32h1.332zm6.851 6.648h-1.248v-3.612c0-1.384-.552-2.076-1.656-2.076-.584 0-1.024.196-1.32.588-.288.384-.432.876-.432 1.476V352h-1.248v-6.648h1.164v.708h.024c.448-.592 1.096-.888 1.944-.888 1.064 0 1.848.396 2.352 1.188.28.432.42 1 .42 1.704V352z" fill="#D7DADD"/><path d="M218.2 305.16L214.808 317h-1.504l-2.608-9.712h-.032L208.072 317h-1.52l-3.376-11.84h1.216l2.896 10.32h.032l2.816-10.32h1.104l2.832 10.304h.032L217 305.16h1.2zm9.107 7.552c0 .043-.006.096-.016.16v.16h-7.968c.042.853.4 1.595 1.072 2.224.682.629 1.456.944 2.32.944.693 0 1.328-.187 1.904-.56a2.986 2.986 0 001.232-1.504h1.184a4.496 4.496 0 01-1.664 2.224c-.79.565-1.67.848-2.64.848-1.259 0-2.336-.448-3.232-1.344-.886-.896-1.328-1.973-1.328-3.232 0-1.259.442-2.341 1.328-3.248.896-.907 1.968-1.36 3.216-1.36 1.269 0 2.352.464 3.248 1.392.896.928 1.344 2.027 1.344 3.296zm-1.152-.688c-.15-.864-.539-1.579-1.168-2.144-.63-.565-1.382-.848-2.256-.848a3.3 3.3 0 00-2.256.848c-.63.565-1.014 1.28-1.152 2.144h6.832zm7.638 2.512c0 .832-.251 1.488-.752 1.968-.502.469-1.168.704-2 .704-.779 0-1.424-.251-1.936-.752-.502-.512-.752-1.163-.752-1.952v-.096h1.12c.01.533.144.965.4 1.296.266.331.656.496 1.168.496.501 0 .896-.133 1.184-.4.298-.277.448-.667.448-1.168 0-.427-.139-.768-.416-1.024a2.734 2.734 0 00-1.024-.608 82.928 82.928 0 01-1.2-.464 2.485 2.485 0 01-1.008-.752c-.278-.341-.416-.784-.416-1.328 0-.715.234-1.296.704-1.744.48-.459 1.077-.688 1.792-.688.672 0 1.237.229 1.696.688.458.459.688 1.024.688 1.696h-1.12c-.022-.395-.15-.72-.384-.976-.235-.267-.544-.4-.928-.4-.374 0-.688.128-.944.384a1.231 1.231 0 00-.384.928c0 .363.138.656.416.88.277.224.613.405 1.008.544a16.5 16.5 0 011.2.464 2.41 2.41 0 011.024.832c.277.384.416.875.416 1.472zm5.659-5.28h-2.096V317h-1.12v-7.744h-1.84v-1.008h1.84v-3.088h1.12v3.088h2.096v1.008zm9.886 3.456c0 .043-.006.096-.016.16v.16h-7.968c.042.853.4 1.595 1.072 2.224.682.629 1.456.944 2.32.944.693 0 1.328-.187 1.904-.56a2.986 2.986 0 001.232-1.504h1.184a4.496 4.496 0 01-1.664 2.224c-.79.565-1.67.848-2.64.848-1.259 0-2.336-.448-3.232-1.344-.886-.896-1.328-1.973-1.328-3.232 0-1.259.442-2.341 1.328-3.248.896-.907 1.968-1.36 3.216-1.36 1.269 0 2.352.464 3.248 1.392.896.928 1.344 2.027 1.344 3.296zm-1.152-.688c-.15-.864-.539-1.579-1.168-2.144-.63-.565-1.382-.848-2.256-.848a3.3 3.3 0 00-2.256.848c-.63.565-1.014 1.28-1.152 2.144h6.832zm6.47-2.816c-.779.064-1.392.331-1.84.8-.437.469-.656 1.093-.656 1.872V317h-1.12v-8.752h1.12v1.264h.032c.224-.523.533-.891.928-1.104.395-.213.907-.341 1.536-.384v1.184zm9.346 7.792h-1.12v-4.816c0-1.077-.278-1.877-.832-2.4a2.687 2.687 0 00-1.904-.752c-.736 0-1.371.251-1.904.752-.544.512-.816 1.285-.816 2.32V317h-1.12v-8.752h1.12v1.12h.032a2.634 2.634 0 011.136-.992 3.546 3.546 0 011.552-.352c1.226 0 2.176.384 2.848 1.152.672.757 1.008 1.76 1.008 3.008V317zm17.803-3.104a6.23 6.23 0 01-2.288 2.416 5.992 5.992 0 01-3.168.896c-1.707 0-3.168-.592-4.384-1.776-1.206-1.184-1.808-2.629-1.808-4.336 0-1.728.597-3.179 1.792-4.352 1.194-1.184 2.656-1.776 4.384-1.776.896 0 1.749.187 2.56.56.81.363 1.514.88 2.112 1.552.352.384.602.757.752 1.12h-1.328a4.718 4.718 0 00-1.776-1.584 4.981 4.981 0 00-2.336-.576c-1.355 0-2.523.507-3.504 1.52-.982 1.013-1.472 2.197-1.472 3.552 0 1.333.496 2.507 1.488 3.52 1.002 1.003 2.17 1.504 3.504 1.504 1.642 0 3.024-.747 4.144-2.24h1.328zM292.42 317h-1.12v-1.536h-.032a3.679 3.679 0 01-1.472 1.296 4.261 4.261 0 01-1.936.448c-1.322 0-2.437-.437-3.344-1.312-.906-.885-1.36-1.984-1.36-3.296 0-1.301.459-2.389 1.376-3.264.918-.875 2.027-1.312 3.328-1.312.704 0 1.355.149 1.952.448a3.526 3.526 0 011.456 1.312h.032v-1.536h1.12V317zm-2.08-1.84a3.503 3.503 0 001.024-2.528c0-.981-.341-1.824-1.024-2.528-.672-.715-1.498-1.072-2.48-1.072-1.034 0-1.893.347-2.576 1.04-.672.683-1.008 1.541-1.008 2.576 0 1.024.342 1.872 1.024 2.544.683.672 1.536 1.008 2.56 1.008.982 0 1.808-.347 2.48-1.04zm13.354-2.56c0 1.312-.453 2.411-1.36 3.296-.906.875-2.021 1.312-3.344 1.312a4.332 4.332 0 01-1.936-.448 4.001 4.001 0 01-1.472-1.296h-.032v4.608h-1.12v-11.824h1.12v1.536h.032a3.995 3.995 0 011.472-1.296 4.155 4.155 0 011.936-.464c1.302 0 2.411.437 3.328 1.312.918.875 1.376 1.963 1.376 3.264zm-1.12.048c0-1.035-.341-1.893-1.024-2.576-.672-.693-1.525-1.04-2.56-1.04-.981 0-1.813.357-2.496 1.072a3.533 3.533 0 00-1.008 2.528c0 .981.336 1.824 1.008 2.528.683.693 1.515 1.04 2.496 1.04 1.024 0 1.878-.336 2.56-1.008.683-.672 1.024-1.52 1.024-2.544zm11.483.064c0 .043-.006.096-.016.16v.16h-7.968c.042.853.4 1.595 1.072 2.224.682.629 1.456.944 2.32.944.693 0 1.328-.187 1.904-.56a2.986 2.986 0 001.232-1.504h1.184a4.496 4.496 0 01-1.664 2.224c-.79.565-1.67.848-2.64.848-1.259 0-2.336-.448-3.232-1.344-.886-.896-1.328-1.973-1.328-3.232 0-1.259.442-2.341 1.328-3.248.896-.907 1.968-1.36 3.216-1.36 1.269 0 2.352.464 3.248 1.392.896.928 1.344 2.027 1.344 3.296zm-1.152-.688c-.15-.864-.539-1.579-1.168-2.144-.63-.565-1.382-.848-2.256-.848a3.3 3.3 0 00-2.256.848c-.63.565-1.014 1.28-1.152 2.144h6.832z" fill="#707079"/><path d="M448 373c1.45.161 2.958 1.255 4.38 1.647 3.306.91 6.912.637 10.306.772 1.319.052 2.609.345 3.931.36 1.02.012 2.449.491 3.383 0" stroke="#BF0" stroke-linecap="round" stroke-dasharray="0.75 2"/></g><path d="M108 372c0 2.75-2.25 5-5 5s-5-2.25-5-5 2.25-5 5-5 5 2.25 5 5zm-4-10c0 2.75-2.25 5-5 5s-5-2.25-5-5 2.25-5 5-5 5 2.25 5 5zm29 0c0 2.75-2.25 5-5 5s-5-2.25-5-5 2.25-5 5-5 5 2.25 5 5zm-22 41c0 2.75-2.25 5-5 5s-5-2.25-5-5 2.25-5 5-5 5 2.25 5 5zm49 0c0 2.75-2.25 5-5 5s-5-2.25-5-5 2.25-5 5-5 5 2.25 5 5zm10 6c0 2.75-2.25 5-5 5s-5-2.25-5-5 2.25-5 5-5 5 2.25 5 5zm285-34c0 2.75-2.25 5-5 5s-5-2.25-5-5 2.25-5 5-5 5 2.25 5 5zm21 0c0 2.75-2.25 5-5 5s-5-2.25-5-5 2.25-5 5-5 5 2.25 5 5z" fill="#BF0"/><path d="M100.998 370.36c.135-1.347 1.73-3.008 1.111-4.4-.438-.986-1.128-2.213.111-2.601 1.654-.517 3.658 1.033 5.001 1.8 1.712.978 4.005 2.269 5.868 2.89 1.616.539 2.777 1.759 4.311 2.311 2.429.875 4.852 1.941 7.223 2.978 1.527.668 2.838 1.142 4.379 1.912 1.41.705 2.399 2.088 3.8 2.711 1.015.451 1.442 1.623 2.401 2.178.861.499 1.667.89 2.6 1.223 3.547 1.266 7.516 1.655 11.157 2.644.967.263 6.705 1.165 7.223 2.979.343 1.199.022 2.908.022 4.178 0 3.241-2.8 5.347-2.8 8.623 0 4.897 4.896 5.254 8.445 5.001 4.997-.357 10.471 1.303 15.247 2.689 5.102 1.481 9.39-1.443 12.735-4.578 1.374-1.289 1.813-3.139 3.378-4.356 1.407-1.095 3.547-.836 5.223-1.289 4.466-1.207 2.026-7.76 3.867-10.891.824-1.401 3.467-1.349 4.845-1.511 3.214-.378 6.157-1.002 9.268-1.734 4.02-.946 7.637-3.369 10.69-5.867 1.447-1.184 3.982.115 5.512.333 5.421.775 12.271 2.438 16.714-2.333.996-1.071.993-4.09 3.089-4.09 2.637 0 5.543.467 7.89 1.778 8.264 4.619 19.65 6.842 29.07 5.334 3.87-.619 6.701-.765 10.646.111.774.172 1.289 1.062 2.089 1.156 1.547.182 3.501-.021 4.912-.689 2.124-1.006 4.489-2.349 6.156-.311 2.514 3.072 4.827 5.461 8.913 6.312 3.085.643 6.087.816 9.156 1.311 2.348.379 4.816-.156 7.068.511 3.625 1.075 10.161 1.159 13.691-.489 2.895-1.351 6.456-.376 9.423.089 2.418.38 5.782.503 8.179.067 1.323-.24 3.538-.39 4.223-1.622.785-1.415.378-3.292 1.111-4.757 1.398-2.795 7.077-2.499 9.535-3.822 1.834-.988 4.1-.981 5.911-1.956 2.298-1.237 4.905-1.781 7.268-2.845 3.323-1.495 7.184-3.129 10.757-3.689 2.02-.317 4.083.557 6.045 1.022 2.273.538 4.51.489 6.823.489 3.648 0 7.468-2.098 11.202-1 4.794 1.41 9.864 1.654 14.157 3.8" stroke="#BF0" stroke-linecap="round" stroke-dasharray="0.75 2"/><path d="M102.998 400.765c-3.691-3.908.8-8.502-1.2-13.002-.623-1.4-2.964-5.277-1.778-6.801 1.11-1.428 3.87-2.93 5.689-3 2.481-.096 4.765-.801 7.29-.801 1.105 0 2.42-.144 3.423-.6.615-.279 2.622-.755 2.978-1.2.516-.644 1.854-.739 2.489-1.311.633-.57 1.062-1.362 1.711-1.867 1.769-1.376 2.977-3.187 4.201-5.023" stroke="#BF0" stroke-linecap="round" stroke-dasharray="0.75 2"/><path d="M95.063 376h-1.04v-6.45h-1.09v-.95h2.13v7.4zm-3.57-11h-4.63v-.87l2.91-2.96c.447-.447.67-.897.67-1.35a1.5 1.5 0 00-.35-.99 1.129 1.129 0 00-.91-.42c-.413 0-.737.15-.97.45-.233.3-.35.663-.35 1.09v.19h-1.04v-.04c-.006-.573.11-1.077.35-1.51.247-.44.62-.76 1.12-.96.28-.113.563-.17.85-.17.667 0 1.224.233 1.67.7.447.46.67 1.023.67 1.69 0 .42-.087.783-.26 1.09-.166.307-.423.64-.77 1l-2.06 2.11h3.1v.95zm29.97-2.21c0 .693-.227 1.26-.68 1.7-.453.433-1.027.65-1.72.65a2.343 2.343 0 01-1.68-.67 2.229 2.229 0 01-.71-1.65h1.04c.02.407.153.737.4.99.253.253.58.38.98.38.367 0 .68-.133.94-.4.26-.273.39-.593.39-.96 0-.387-.133-.703-.4-.95a1.37 1.37 0 00-.98-.38h-.38v-1.04h.36c.32 0 .58-.093.78-.28.2-.187.3-.437.3-.75a1 1 0 00-.29-.72.918.918 0 00-.7-.3c-.293 0-.523.097-.69.29-.167.193-.267.443-.3.75h-1.04c.053-.927.49-1.543 1.31-1.85.28-.093.53-.14.75-.14.587 0 1.067.197 1.44.59.373.387.56.873.56 1.46 0 .32-.053.583-.16.79-.1.207-.273.423-.52.65.667.427 1 1.04 1 1.84zm-21.69 43.05h-.78V407h-1.04v-1.16h-3.38v-1.01l3.38-5.23h1.04v5.29h.78v.95zm-1.82-.95v-3.56h-.02l-2.16 3.56h2.18zm49.8-1.4c0 .733-.24 1.36-.72 1.88-.48.513-1.083.77-1.81.77-.693 0-1.27-.22-1.73-.66-.453-.447-.717-1.02-.79-1.72h1.04c.08.42.247.763.5 1.03s.583.4.99.4c.42 0 .77-.163 1.05-.49a1.66 1.66 0 00.43-1.13c0-.453-.13-.853-.39-1.2-.26-.353-.61-.53-1.05-.53-.58 0-1.023.257-1.33.77l-.9-.21.62-3.8h3.38v.95h-2.52l-.28 1.64c.28-.2.623-.3 1.03-.3.727 0 1.32.25 1.78.75.467.493.7 1.11.7 1.85zm29.07 6.99c0 .733-.243 1.36-.73 1.88-.487.52-1.093.78-1.82.78-.52 0-.983-.13-1.39-.39a2.546 2.546 0 01-.93-1.1 2.402 2.402 0 01-.25-1.03c0-.607.187-1.197.56-1.77l2.08-3.25h1.23l-1.57 2.43c.167-.033.313-.05.44-.05.687 0 1.253.243 1.7.73.453.487.68 1.077.68 1.77zm-1.04.11c0-.447-.14-.833-.42-1.16-.273-.333-.63-.5-1.07-.5-.433 0-.8.16-1.1.48-.3.313-.45.683-.45 1.11 0 .453.143.847.43 1.18.287.327.653.49 1.1.49.42 0 .777-.16 1.07-.48.293-.32.44-.693.44-1.12zm294.327-43.8c0 .647-.23 1.2-.69 1.66a2.23 2.23 0 01-1.65.69c-.647 0-1.2-.223-1.66-.67a2.247 2.247 0 01-.68-1.65c0-.787.323-1.42.97-1.9-.22-.22-.38-.437-.48-.65-.1-.213-.15-.47-.15-.77 0-.56.197-1.04.59-1.44.393-.4.87-.6 1.43-.6.553 0 1.023.203 1.41.61.387.4.58.873.58 1.42 0 .313-.05.58-.15.8-.1.213-.27.423-.51.63.66.447.99 1.07.99 1.87zm-1.37-3.4a.957.957 0 00-.28-.69.911.911 0 00-.68-.29.893.893 0 00-.69.31c-.187.2-.28.437-.28.71 0 .273.09.51.27.71.187.2.417.3.69.3.293 0 .527-.1.7-.3.18-.2.27-.45.27-.75zm.33 3.49a1.38 1.38 0 00-.38-.97 1.19 1.19 0 00-.92-.41 1.22 1.22 0 00-.93.41c-.247.273-.37.593-.37.96 0 .36.123.67.37.93.253.26.56.39.92.39.353 0 .66-.13.92-.39s.39-.567.39-.92zm4.277-.25h-2.8v-1.04h2.8v1.04zm3.613 2.37h-1.04v-6.45h-1.09v-.95h2.13v7.4zm7.106-5.11v2.73c0 .36-.036.667-.11.92a2.101 2.101 0 01-.43.75c-.473.567-1.096.85-1.87.85-.36 0-.706-.077-1.04-.23a2.386 2.386 0 01-.83-.67c-.2-.253-.336-.51-.41-.77-.066-.26-.1-.57-.1-.93v-2.58c0-.54.124-1.01.37-1.41.247-.407.614-.71 1.1-.91.314-.127.63-.19.95-.19.68 0 1.244.237 1.69.71.454.473.68 1.05.68 1.73zm-1.04 2.75v-2.75c0-.44-.116-.797-.35-1.07-.233-.28-.563-.42-.99-.42-.426 0-.763.14-1.01.42-.24.273-.36.63-.36 1.07v2.73c0 .46.12.837.36 1.13.24.293.58.44 1.02.44.394 0 .727-.157 1-.47.14-.16.23-.317.27-.47a2.5 2.5 0 00.06-.61zm-30.799-4.09l-2.71 6.45h-1.16l2.79-6.45h-3.21v-.95h4.29v.95z" fill="#fff"/></g><defs><clipPath id="clip0_8539_9112"><path fill="#fff" d="M0 0h580v700H0z"/></clipPath><clipPath id="clip1_8539_9112"><path fill="#fff" transform="translate(-48 -645)" d="M0 0h1242.2v1090.4H0z"/></clipPath></defs></svg>