<svg width="580" height="700" viewBox="0 0 580 700" fill="none" xmlns="http://www.w3.org/2000/svg">
<g clip-path="url(#clip0_8539_9112)">
<g clip-path="url(#clip1_8539_9112)">
<path fill-rule="evenodd" clip-rule="evenodd" d="M534.7 184.3L533.1 182L531.1 180.9L531.4 178.1L532.3 177L532.8 175.1L533.5 174.5L532.7 172.1L526.7 170.6L523.3 165.9L521.2 165.6L518.8 166.5L516.6 169.7L514 171.5L511.2 173L507.7 170.2L507.9 168.3L507.1 166.6L505.3 165L498.8 161.3L493.5 160.6L490.8 160.9L487.6 162.2L485.7 162.6L476.3 162.5L472.9 166L468.1 168.7L462.8 176L461.2 179.2L459.6 181L451.2 188.7L448.8 184.8L448.7 183.9L448 180.7L445.2 179.3L441.7 178L436.1 177.7L432.8 176.3L427.5 176L423 173.3L416.1 171L412.8 166L409.3 162.2L406.4 160L392.4 152.7L390.2 155.8L381.3 177.8L378.2 178.4L377.6 180.2L377.1 181.3L376.9 182.8L376.7 184.2L376.8 187L376.1 190.5V190.9L376.2 191.5L376.7 192.3L378 195.9L376.4 199.2L374.6 199.6L370.2 204.9L368.2 208.2L363.8 211.3L359.2 212.4L354.3 211.4L351.7 210.4L348.8 209.6L345.9 210.6L342.7 209.9L340.3 210.3L336.6 212.2L334.4 216.5L330.1 219L326.7 221.7L323.6 222.3L317.8 224.3L315.3 227.7L314 229.1L312.7 230.2L309.2 231.6L307.8 236.4L303.6 244.8L297.8 247.6L294.4 248.5L290 249L284.5 251.1L281.3 254.6L280.5 258.1L279.9 263L278.4 267.6L272.4 272.7L265.1 272.9L262.2 271.5L260.4 271.2L256 273.4L250.9 274.3L247.7 271.2L246 270.4L244.4 267.6L242.4 265.7L240.2 262.6L238.5 261.4L236.8 260.4L234.9 258.9L233.1 256.5L232.1 251.8L228.4 243.9L226.3 237.2L225 231.5L225.3 227.4L227.2 226L229.6 223.4L235.2 216V212.4L234.1 210.5L233.1 208.3L231.8 207.3L229.6 207.6L224.9 212.5L222.8 213.7L220.3 216.9L213.4 222.5L209.2 223.7L204.1 223.9L202.2 225.3L198.7 227L196.7 229.7L194.3 230.8L192.8 231.1L191.1 230.1L189.6 231.5L188.6 234.5L187.2 238.1L186.8 240.9L187.8 243.5L188 243.9L188.3 244.2L188.6 244.6L188.2 245.4L183.8 247.5L179.2 242.7L180.3 234.4V232.2L177.3 226.5L176.7 225.1L176.2 222.9L175.6 218.3L177.2 215.5L180.4 212.2L180.7 211.4L180 206.7L179.4 204.6L179.3 204L179.6 202.7V202.1L179.4 201.2V200.4L179.6 198.5L179.4 197.9L179.1 197.7L178.1 197.8L177.6 197.7L177.2 197.6L176.8 197.2L176.4 196.8L175.7 195.5L175.4 195.1L175.1 194.8L174.7 194.5L174.4 194.3L174 194.2H173.5L173.1 194.3L172.7 194.5L172.3 194.7L171.9 194.9L171.5 195L171.1 194.8L170.4 194L170 193.8L169.4 193.7L168.7 193.8L168.1 193.5L167.6 192.7L166.3 189.9L165.6 188.9L164.7 188.3L162.6 187.3L162.3 186.5V185.4L163.5 180.9L163.1 180.4L162.1 180.9L159.4 183.1L158.3 183.7L157.5 183.8L157.1 183.6L156.7 183.4L156.3 183.2H155.8L155.4 183.3L154.7 183.8L154.3 183.9L153.8 184L153.4 183.8L153.1 183.6L152.5 183L151.7 182.4L150.6 181.9L149.6 181.5L145.6 181.3L146.9 175.4L148.5 172.4L148.9 168.4L147.6 160.8L148 158.6L148.1 155.2L148.5 153.3L148 151.2L147.1 149.9L146.7 147.8L144.7 146L144.1 144V140.3L142.7 132.1L143.2 129.3V128L142.4 126.7L140.4 124.3L138.7 119.8L136.3 103.3L138 97.4002L136.4 92.2002L138.8 88.8002V78.3002L131.6 75.8002L128.2 72.3002L126.2 68.9002L123.4 65.4002L120.1 62.9002L115.5 60.3002L110.2 56.2002L106.2 56.6002L104 58.4002L102.9 61.0002L98.9002 58.7002L97.6002 61.5002L95.2002 65.5002L93.3002 72.2002L90.1002 78.1002L86.5002 83.4002L83.0002 85.5002L79.7002 86.9002L76.9002 85.6002L75.0002 84.5002L73.5002 83.4002L72.2002 82.9002L71.1002 82.7002L69.7002 82.8002L68.1002 84.1002L65.9002 86.4002L64.1002 92.5002L59.6002 96.7002L58.6002 103L54.9002 108L54.3002 117.4L50.2002 116.2L53.0002 120.8L53.4002 122L54.1002 122.9L57.2002 125.4L58.1002 126.5L59.0002 130.6L59.8002 132.8L62.0002 134.5L64.9002 139.1L67.4002 141.3L68.5002 142.7L69.0002 144.3L69.6002 145.7L73.2002 149.5L76.7002 154.5L76.8002 155.2L77.4002 156.4L80.9002 160.9L82.7002 163.9L84.0002 166.9L85.6002 173.1L85.7002 174L85.6002 174.7L85.7002 175.5L86.1002 176.7L87.0002 178.2L87.9002 179.4L88.8002 181.2L88.9002 183.1L88.7002 187L89.1002 188.9L90.5002 192.8L91.3002 202.3L94.3002 213.9L93.9002 217.5L92.1002 219.9L91.7002 221.3L92.6002 223.3L93.0002 224.7L93.4002 230.9L93.1002 234.5L91.3002 241.8L90.2002 244.9L88.5002 248.4L79.3002 257.7L76.8002 259.7L73.9002 260.4L70.7002 259.1L66.8002 255.5L65.9002 254.2L66.5002 253.5L65.4002 253.4L63.6002 253.9L61.8002 254.6L60.7002 255.4L60.5002 256.6V259.3V260L60.2002 260.6V261.1L60.1002 261.4L59.5002 261.5L59.0002 261.8L57.9002 262.8L57.6002 263.1L57.4002 263.4H56.9002L56.3002 263.3L56.0002 263.4V264.2L56.3002 264.5L56.7002 264.7L58.4002 267.1L58.8002 268.1L58.4002 269.2L57.6002 270.2L57.4002 270.9V271.7L57.9002 273.7L58.8002 276.2L59.2002 277L58.7002 278.3L58.9002 279.3L59.4002 280.1L59.7002 280.9L59.8002 281.5L60.0002 282.4L60.4002 283.3L61.2002 284.3L62.7002 283.1L63.5002 282.7L64.4002 282.5L64.0002 282L63.3002 280.6L65.6002 280.2L67.8002 280.4L69.6002 281.3L70.7002 283L70.9002 284.4L70.7002 288.2L70.9002 289.1L71.5002 290L73.2002 291.7L73.6002 291.9L74.4002 292L74.8002 292.2L75.0002 292.8L75.1002 294.3L75.5002 295.1L77.2002 296.7L77.5002 297.7L76.3002 298.4L75.3002 298.1L74.3002 297L72.9002 295.1L70.9002 293.4L70.3002 292.7L70.7002 291.7L69.8002 291.1L69.3002 290.2L68.9002 289.3L68.3002 288.2L67.5002 287.9L66.4002 288.2L64.4002 289.2L65.3002 290.4L66.2002 292.1L67.2002 293.5L68.8002 294.1L70.0002 294.8L73.5002 298.2L74.2002 299.3L74.5002 300.3L76.3002 302.8L77.3002 305.2L79.2002 308.7L79.6002 310.5L78.9002 312L87.1002 317.7L89.2002 320.1L91.1002 323.1L91.6002 324.7L91.8002 326.6V330.3L92.1002 331.1L92.7002 331.6L93.9002 332.5L97.4002 336.7L98.1002 337.1L98.5002 338.8L100.5 342.8L102.5 350.8L102.7 352.6L103 353.8L104.5 356.1L104.8 357.8L103.8 361.2L101.3 361.6L98.4002 361.5L96.0002 363.5L95.3002 365.4L94.4002 368.7L93.4002 370.3L92.3002 371.7L91.6002 372.9L91.7002 374.2L92.8002 375.9L93.4002 375.6L93.8002 375.4L94.9002 375.2L94.4002 376.2L94.1002 377.1L93.9002 378.1V379.3L93.6002 380.7L93.1002 381.2L92.4002 381.4L91.8002 382.1L91.6002 383.4L91.7002 384.6L92.4002 385.5L94.6002 386.2L95.2002 387.2L96.0002 389.6L96.2002 389.8L96.5002 389.9L96.9002 390.2L97.0002 390.5L96.9002 391.2L96.6002 392.4L96.5002 393L96.7002 394.1L98.6002 397.7L99.7002 399.2L101.5 400.9L103.4 401.9L104.8 401.5L103.5 400.4L103.2 398.6L103.9 392.6L103.8 391.7L103.7 390.8L102.7 387L102.2 386.4L101.7 386L101.3 385.6L101.1 384.6L101.2 383.4L101.6 382.7L102.7 381.6L103.4 380.6L104 380L105.3 379L108 377.9L108.7 377.4L109.8 377L116.8 376.6L123.9 377.3L128.3 378.4L129.6 379.1L132.7 383.9L131.7 385.5L130.7 386.3L130 387.1L130.1 389L131.2 392.1L131.3 393.4L130.7 395.2L130.2 396L129.7 396.3L129.4 396.7L129.1 397.7L129.2 398.4L129.7 401.5L129 402.6V403.5L129.7 404.6L130.4 405L131.2 405.2L132 405L132.3 404.3L133.8 403.2L141.2 402L143.4 401.1H144.4L150.1 401.5L150.9 400.8L152.7 397.8L154 397L153.3 399.1L152.8 401L151.9 402.4L149.9 402.7V403.3L151.1 404.2L152.5 406.7L153.5 407.7L154.5 408L159.2 408.4L164.5 407.3L165.4 407.5L166.5 408.3L168 410.2L169.5 412.9L170.7 415.8L171.1 418.3L170.7 419.3L166.2 425.6L165.9 426.6L166.6 426.1L167.2 425.9L167.9 426.1L168.5 426.6L170 425.4L171.8 424.9L173.6 425.1L175 426.2L176.2 427.7L177.4 428.6L181.2 430.8L187 436.7L190.8 439L191.2 439.5L191.5 440.1L192 440.7L192.9 440.9L193.9 440.6L195.2 439.3L196.3 439L208.4 438.6L209.7 439.4L210.8 440.5L215.6 444.1L216.7 444.7L217.8 445.1L219 445.3L220.3 445L222.2 443.7L223.5 443.4V442.8L222.4 440.4L224.6 437.5L230.2 433.4L233.2 432L235.1 431.5L235.9 431.8L236.4 430.2L237.5 428.7L238.9 427.4L240.1 426.6L242.5 425.6L243.2 425.3L244 424.4L244.4 423.6L244.9 423L246 422.8L247.4 422.2L248.8 420.8L253 415.2L255.6 413.1L258.7 411.6L269.3 410.2L282.7 412.6L284.1 412L284.7 410.1L283.8 408.2L282 406.8L280 406.5L281.4 405.8L285.7 404.6H285.1L288.2 403.1L291.8 402.7L299.1 403.3L302.1 404L314.6 408.6L317.8 408.9L321.1 408.4L326.1 406.2L326.6 405.8L327 405.3L327.4 404.7L327.9 404.2L330.6 403.6L333.7 402.3L335.4 402L337 402.4L339.9 404.2L347.8 405.8L351.1 405.6L354.4 405L357.4 403.8L361.9 401.2L362.4 400.8L363.9 398.2L364.6 397.2L364.2 394.2L364.4 392.7L366.3 390.6L369.1 389.4L379 387.9L380.5 387.4L381.5 386.5L380.2 385.7L379.1 384.6L378.7 383.1L379.7 381.2L381.9 378.8L383.1 377.8L384.6 377.1L391.1 375.5L394.3 375.4L401.4 376.2L404.8 375.5L407.8 373.8L411.8 370.6L413 370L414.5 369.7H416.5L418 369.9L426.5 372.9L428.3 373.3L429.7 372.8L428.5 372.2L427.3 371.1L426.3 369.8L425.6 368.4L428.9 368.8L430.6 369.3L431.8 370.3H430.6L430.1 370.7V371.3L430.2 372.1L430.8 373.5L431.7 374.1L432.7 374.4L435.1 375.9L441.1 377.8L442.3 377.9L443.1 377.7L443.8 377.3L444.8 377.1L446.9 377.3L447.9 377.6L448.4 378.1L448.9 377.5V376.9L448.1 375.6L447.4 375L446.6 374.7L446.1 374.1L445.8 372.8L446.5 373.5L447.4 373.8L449.7 374L449.9 374.6L450.3 377.2L450.7 377.8L476.8 380.3V379.6L475.1 379.4L473.8 378.1L473.3 376.3L474 374.3L475.2 373.1L476.7 372.1L478.3 371.4L490.5 368.6L494 368.4L494.4 368.5L494.3 365.6L494.4 364.4L497.9 358.7L488.6 354.1L487.1 351.8L484.3 350.7L482.4 350.3L480.5 351L473.7 350.4L476.5 347.4L477.4 346L479 344.2L492.7 338L493.8 335.8L490 330.8L488.6 324.6L484.7 321.5L479 318.9L465.7 315.9L448.2 315.1L438.8 316.4L427 316.1L426 312.6L426.7 309.5L439.6 288.6L440.8 285L439.6 281.3L442 277.7L442.4 275L446 270.1L447.7 269.1L450.4 268.1L451.6 266.2L451.5 263L451.1 260.9L451.2 260.3L451.4 260.4L451.7 260.8L452 261.1L452.3 261.4L452.6 261.8L453.1 263.1L453.7 264L454.6 265.1L455.4 265L456.9 264.5L460.7 262.8L465.8 262.4L470.7 262.8L474 259.2L470.8 256.2L469.5 253.2L467 250.2L467.3 246L466.8 243L465.8 239L463.9 235.7V231.9L464.3 228.5L467.7 225.6L470.6 222.3L476.1 222.8L479.8 221L491.5 219.6L494.1 218L496.9 212L500.5 209.3L503.2 208.2L509.8 210.5L512.9 211L523.8 206.3L525.4 203.5L528.4 201.8L529.2 199.6L529 198.2V196.1L530 195L530.3 193.3L530.2 192.2L530.8 191L532.2 190.4L533.4 189.3L535.3 186.5L534.7 184.3Z" fill="#BABCC0" fill-opacity="0.5" stroke="#707079" stroke-linecap="round" stroke-linejoin="round"/>
<path fill-rule="evenodd" clip-rule="evenodd" d="M636.2 87.1003L636.7 85.1003L635.1 82.8004L633.7 81.1004L632.6 68.6004L629.8 66.8004L627.2 64.3004L624.6 62.7004L621 62.8004L619.2 62.5004L618.4 61.3004L617.9 59.6004L616.7 58.4004L613.7 56.8004L611.2 54.8004L607.1 50.0004L600.5 43.9004L600.1 43.2004L599.9 42.2004L599.7 40.3004L599.4 39.8004L596.2 38.3004L595.9 38.1004L595.6 37.6004L594.7 37.0004L594.6 36.6004L594.3 36.0004L593.1 33.8004H592.3L591.6 33.6004L591.2 33.5004L590.7 33.2004L590.2 32.7004L582.6 17.0004L580.9 14.1004L578.6 13.6004L577.5 13.4004L576.4 13.2004L575.1 12.9004L573.9 12.4004L572.9 11.8004L572.3 10.8004L572 9.40042L571.7 7.60037L571.3 6.10037L570.5 5.40042L567.3 4.90042L565.1 3.5004L561.6 -0.799591L561 -1.09958L560.2 -1.19962L558.5 -1.09958L558.1 -1.39963L557.7 -3.09958L557.5 -3.39963L555 -3.4996L554 -3.9996L552.5 -5.29959L549.2 -9.69962L548.5 -11.0996L547.9 -14.2996L547.4 -15.2996L547.9 -16.3996L553.1 -27.2996L571.1 -65.2996L579.2 -82.8996L587.7 -101.4L587.9 -102.3L587.5 -102.8L586.7 -103.3L585.7 -104.7L585.2 -107.1L585.5 -112.5L586.9 -117.1L588.2 -119.2L589 -121L590.7 -127.2L591 -128.8L590.9 -129.8L590.2 -130.5L589.6 -131.5L589.3 -132.5L589.6 -133.6L591.4 -134.8L593.5 -136.8L595 -139.2L595.8 -140.8L598 -147.1L598.2 -148.4V-149.8V-151.1L597.6 -150.9H596.7L596.1 -150.7L594.4 -149.2L593.3 -148.5H592.7L592.1 -148.7L583.9 -164.6L585.3 -164.9L599.2 -181.8L598.2 -182.9L597.4 -183.2L596.6 -183.5L595.1 -183.7L583.2 -183.5L581.3 -184.1L580.6 -185.2L580.3 -186.6L579.5 -188.4L578.8 -190.9L577.8 -192.1L577.4 -192.2L575.4 -192.5H574.3L573.7 -192.4L573.4 -192.1L573 -191.2L572.8 -190.3V-188.8L572.9 -188L573.1 -187.5L573.2 -187L573.1 -186.4L572.4 -184.8L572.2 -184.1L572.3 -183.2L572.7 -181.5L573 -181.2L573.3 -180.9L574.1 -180.5L574.4 -180.2L574.5 -179.8L574.7 -177.7L574.6 -176.7L574.1 -174.8L574 -173.8V-172.5L573.9 -171.7L573.4 -170.5L573 -169.8L572.5 -169.3L571.7 -169.1L571.1 -168.8L570.6 -168.3L569.8 -166.6L568.6 -165.1L568.3 -162.9L568.4 -162.3L568.6 -160.2L568.5 -159.6L568.4 -158.6L567.8 -156.9L564.8 -154.2L564.2 -153.5L563.8 -152.4L563.6 -151.7L562.9 -150.5L560.9 -148.4L554.7 -153.7V-154.9L555.1 -156.2L555.6 -157.1L555.4 -158.8L553.3 -161.6L552.2 -162.4L550.3 -162.8L549.5 -163.8L549 -165.5L549.8 -167.4L550.6 -169L553 -171.4L553.7 -172.8L554 -174.8L553.5 -180.6L552.8 -182.3L552.4 -183.8L529 -178.4L526.9 -183.1V-188.3L524.9 -192.2L524.4 -197.1L524 -198.6L524.1 -200L524.3 -201.5L524.5 -210.2L522.6 -213.3L520.9 -215.3L520.6 -214.3L520.3 -213.6L519.7 -212.4L519.6 -210.4L519.7 -209.1L520.2 -207.1L519.8 -206.4L517.2 -206.5L514.8 -207L513.5 -206.6L512.4 -205.6L512.1 -204.5L512.3 -203.5L513.6 -202.5L513.8 -201.6L513.4 -200.8L512.3 -200.2L510.8 -200.1L508.1 -200.4L506.5 -200.3L505.5 -199.8L505.2 -199.5L504.4 -198.3L502.7 -196.5L500.9 -196.3L497.6 -197.4L494.5 -198.8L491.4 -200.8L489.1 -201.5L482.5 -202.4L482.4 -203.3L482 -204.2L481.5 -205.1L479.9 -206.5L478 -206.7L477.5 -206.6L476.6 -206.9L472.3 -210.5L470.8 -211.3L468.7 -211.9L465.1 -212.1L463.5 -212.5L462 -213.5L455.2 -221.1L452.1 -223.8L448.4 -224.3L447.2 -225.3L446.4 -226.5L445.4 -229L445.1 -231.2V-232.9L445.2 -235.6L445.8 -237.8L446.8 -239.1L450.2 -240.5L451.1 -241.1L451.4 -241.5L451.5 -241.7L451.1 -242.3L448.9 -245.6L446.3 -254.2L446.4 -255.3L446.8 -256.9L448 -258.6L448.2 -260.4L447.9 -263.4V-265L448.6 -268.1L448.3 -269.3L443.2 -272.9L442 -272.7L441.5 -272.5L441.2 -273.1L440.6 -273.8L439.8 -274.7L438.3 -275.3L435.9 -275.5L434.9 -275.9L434 -276.8L432.8 -277.5L431.4 -277.6L430.4 -277.8L428.3 -277.9L427.3 -277.7L426.3 -277.6L424.4 -277.8L423.6 -278.3L423 -279.6L422.4 -283.7L422.3 -284L421.9 -286L422 -288.2L422.5 -289.9L423.5 -291.1L422.8 -316.1L417.6 -316.4H417.3L416.6 -315.7L415.1 -314.6L414.2 -313.5L413 -310.6L411.6 -308.4L410.3 -307.9L406.8 -308.6L404.4 -308.2L402.8 -306.8L400.2 -303L396.3 -299.2L394.4 -298.2L393.3 -297.8L389.8 -297.2L389.1 -296.7L388.3 -295L385.3 -291.9L383.8 -288.9L381.4 -282.2L378.5 -277.8L374.7 -273.9L370.3 -271.2L365.5 -270H358.1L355.8 -269.6L353.7 -268.8L352.8 -268L352.7 -266.6L353.4 -262.9L353.5 -261.2L353.2 -259.7L352.4 -258.2L351 -256.9L346.7 -253.9L345 -253.3H343.4L338.9 -254.5L332.4 -254.7L328.7 -256.4L327 -256.7L323.5 -256.6L317.2 -254.8H316.1L314 -255.1L312.9 -255L306.3 -253.1H304L294 -255.3L290.9 -257.2L287.7 -258.6L283.5 -258L281.6 -257L278 -254.5L273.2 -252.3L271.5 -251.1L271.3 -250.8L270.9 -251.7L270.2 -254.4L269.4 -255.3L268.3 -256.1L267.9 -256.5L267.4 -257.2L266.3 -259.5L265.6 -262.5L265.2 -265.6L265.1 -268.2L266.8 -273.9L266.9 -275.8L266.6 -277L265.3 -278.8L264.9 -279.8L264.6 -282L264.9 -284.4L265.8 -288.9L266.2 -289.9L268.4 -291.6L269.4 -292.9L271.7 -297.1L276.1 -302.6L277.8 -305.6L279.2 -308.9L282.5 -313.5L282.7 -314.8L279.9 -319.8L279.6 -321.4L279.8 -327.4L279.1 -334.6L277.1 -339.6V-339.9L276.2 -340.9H275.8L275.1 -340.6L274 -340.2L274.1 -341L274.9 -342.6L273.3 -348.1L272.5 -349.6L271.8 -350.2L269.8 -351.2L269.2 -352.1V-352.9L269.9 -354.7L269.8 -355.7L269.2 -356.2L268.3 -356.3L267.6 -356.6L267.3 -357.5L267.7 -358.1L269.4 -359.1L269.9 -359.9L269.3 -362.1L265.9 -365.1L266 -367.5L266.5 -368.8L268.7 -370.2L267.7 -371.1L267.1 -371L266.4 -370.6L265.7 -370.3L265 -370.7L264.9 -371.5L265.3 -372.6L265.4 -373.3L264.2 -373.1L264 -374.7L263.6 -375.5L261.3 -376.5L260.1 -377.3L259.6 -378.2L259.1 -380.8L258.8 -381.5L258 -382.6L257.7 -383.1V-383.8L258 -384.2L258.3 -384.7L258.1 -385.5L257.6 -386L256.3 -386.7L255.8 -387.2L255.7 -387.8L255.5 -389.9L254.1 -390.5L252.6 -391.4L251.9 -392.5L252.6 -393.9L252.7 -395.1L251.9 -396.9L249.9 -400.1L247.5 -405.3L246.7 -406.3L236.9 -414.4L231.1 -417.9L230.4 -418.1L228.8 -418.2L228.1 -418.4L227.2 -419L225.2 -421.3L221.3 -424.4L219.9 -426.7L218.5 -427.7L218.1 -428.3L217.7 -429.6V-428.6V-414.6V-410V-405.3V-377.4V-372.7V-340V-335.3V-330.6V-311.8L217.8 -307.1V-283.6V-278.9V-274.1V-255.3V-250.5V-226.9V-222.1V-217.4V-188.9V-184.1V-150.7V-145.9V-141.1V-123.4L217.7 -120.8L215.3 -120.3L214.6 -120.2L212.1 -120.5L211.3 -120.4L209.3 -119.3L205.9 -116.2L203.7 -115.6L200 -115.3L198.3 -114.7L196.8 -113.5L195.5 -112.8L187.9 -112.3L187.3 -112L186.5 -111.5L186 -110.9L185.5 -110.2L184.9 -109.4L184.5 -108.7L183.8 -107.1L183.3 -106.8L182.6 -106.5L182.2 -105.8L180 -98.8996L179.2 -97.6996L177.9 -96.5996L176.3 -95.8996L170.2 -94.2996L169.1 -93.7996L168.3 -93.9996L166.5 -95.4996L165.4 -95.3996L164.4 -94.4996L163.6 -93.3996L162.3 -90.8996L162 -89.0996L162.5 -87.2996L165.3 -82.3996V-81.2996L164.4 -80.7996L161.9 -80.5996L161.4 -80.2996L160.6 -78.8996L160 -78.2996L155.7 -75.9996L152.5 -74.8996L149.6 -74.7996L148.4 -76.4996L148 -76.7996L147.2 -77.0996L144.5 -77.3996L144 -77.5996L143.2 -78.5996L141.3 -81.5996L140 -82.7996L124.2 -85.0996L109.7 -82.8996L107 -81.3996L105.4 -80.8996L105 -81.0996L104.1 -81.8996L103.8 -82.0996L103.3 -81.9996L102.7 -81.5996L102.3 -81.4996L100.8 -81.1996L100 -80.9996L99.4001 -80.5996L97.9001 -79.9996L96.0001 -80.2996L92.9001 -81.4996L91.2001 -81.5996L84.5001 -80.5996L81.8001 -79.6996H80.4001L74.1001 -81.9996L71.2001 -83.4996L66.6001 -87.2996L64.0001 -88.8996L61.3001 -90.0996L48.6001 -92.8996L46.2001 -92.6996L45.4001 -92.2996L43.9001 -91.2996L43.2001 -90.8996H42.2001L39.8001 -91.5996L38.1001 -92.2996L37.8001 -93.9996V-96.0996L37.4001 -97.9996L36.3001 -98.7996L35.0001 -98.4996L33.6001 -97.7996L32.0001 -97.3996L28.9001 -96.9996L25.6001 -96.1996L22.7001 -96.6996L22.6001 -99.2996L23.5001 -102.8L24.0001 -106.2L23.2001 -108.1L20.4001 -109.1L19.8001 -110.6L19.4001 -112.5L17.3001 -115.2L16.7001 -116.7L17.0001 -118L18.0001 -119.1L19.3001 -120L20.6001 -120.3L21.8001 -121.1L22.4001 -123.2L22.6001 -125.5L22.5001 -127.3L22.1001 -128.3L20.9001 -129.9L20.3001 -130.8L20.0001 -131.8V-132.7L19.7001 -133.6L19.1001 -134.6L18.8001 -135.5L18.7001 -136.5L18.4001 -137.5L17.5001 -137.9L15.5001 -137.8L10.7001 -136.6L8.3001 -137.1L6.7001 -139.1L6.4001 -143.1L6.6001 -145V-146.9L5.9001 -148.4L4.0001 -149L2.5001 -149.7L1.5001 -151.2L0.7001 -153L-0.399902 -154.2L-1.1999 -154.6H-1.9999L-3.4999 -154.2L-4.3999 -153.8L-6.8999 -151.9L-8.8999 -152.4L-9.7999 -152.2L-10.8999 -151.1L-11.7999 -150.7L-12.4999 -150.8L-13.2999 -151.8L-13.8999 -151.9L-14.2999 -151.6L-15.5999 -150.1L-15.8999 -149.9L-16.4999 -143.1L-16.9999 -142.2L-17.2999 -142.3L-17.6999 -142.6L-18.9999 -142.5L-19.2999 -142.8L-19.5999 -142.9L-20.0999 -142.6L-20.1999 -142L-19.9999 -141.6L-18.6999 -139.9V-139.3L-19.7999 -139H-21.3999L-21.7999 -138.7L-22.0999 -137.9L-21.8999 -137.3L-21.2999 -136.4L-20.8999 -135.4L-21.0999 -134.3L-21.7999 -133.8L-22.4999 -134.1L-23.2999 -134.6L-23.8999 -134.9L-25.2999 -134.3L-25.5999 -132.7L-25.2999 -131L-24.7999 -129.7L-23.1999 -127.2L-22.5999 -125.7L-23.3999 -125L-24.4999 -124.2L-24.8999 -122.5L-24.9999 -120.6L-25.1999 -119.1L-26.0999 -117.7L-27.3999 -115.8L-28.8999 -114.5L-30.1999 -114.7L-30.4999 -115.5L-30.6999 -116.6L-31.0999 -117.5L-31.6999 -117.9L-32.4999 -117.6L-38.1999 -112L-41.0999 -111L-43.1999 -109.9L-45.1999 -108.6L-46.5999 -108L-46.3999 -107.1L-46.5999 -105.7L-47.0999 -104.5L-47.8999 -103.9L-47.6999 -103.5L-45.7999 -101.4L-44.5999 -100.4L-42.9999 -96.7996L-42.4999 -96.5996H-41.7999L-41.0999 -96.3996L-40.8999 -95.9996L-40.6999 -95.2996L-40.0999 -93.7996L-39.7999 -93.2996L-39.9999 -91.4996L-39.5999 -88.3996L-38.7999 -85.3996L-37.9999 -83.4996L-32.8999 -79.0996L-29.4999 -74.3996L-28.8999 -73.1996L-27.7999 -69.8996L-27.0999 -68.7996L-22.2999 -64.5996L-21.0999 -62.5996L-21.4999 -61.1996L-21.1999 -59.1996L-20.5999 -57.1996L-19.7999 -55.8996L-19.5999 -55.0996V-53.0996L-19.2999 -52.3996L-18.4999 -51.4996L-18.0999 -50.6996L-16.4999 -45.4996L-15.0999 -43.8996L-14.8999 -43.4996L-14.5999 -42.5996L-13.0999 -40.9996L-12.7999 -40.4996L-9.9999 -31.8996L-9.3999 -30.9996L-7.1999 -24.7996L-6.8999 -21.4996L-6.3999 -19.5996L-5.3999 -18.7996V-17.8996L-3.4999 -12.8996L-3.3999 -11.6996V-9.39963L-3.0999 -8.19962H-3.4999L-1.4999 -1.09958V-0.199615L-1.2999 0.700409L-0.999901 1.30038L-0.599899 1.80038L-0.399902 2.20041L9.91821e-05 5.20041L4.8001 16.3004L6.5001 23.2004L6.8001 26.6004L7.9001 29.5004L11.8001 36.5004L12.0001 38.8004L12.3001 39.5004L13.0001 42.3004L13.2001 44.5004L13.5001 45.4004L18.4001 53.9004L19.8001 55.6004L20.5001 57.6004L24.7001 65.4004L26.6001 67.6004L26.3001 70.9004L28.3001 74.7004L32.7001 80.8004L33.7001 83.8004L34.3001 87.0004L34.7001 88.3004L38.9001 96.7004L44.1001 104.2L44.9001 105.6L46.5001 109.6L47.5001 111.1L47.8001 111.7L48.6001 113.8L48.9001 114.1L50.2001 116.2L54.3001 117.4L54.9001 108L58.6001 103L59.6001 96.7004L64.1001 92.5004L65.9001 86.4004L68.1001 84.1003L69.7001 82.8004L71.1001 82.7004L72.2001 82.9004L73.5001 83.4004L75.0001 84.5004L76.9001 85.6003L79.7001 86.9004L83.0001 85.5004L86.5001 83.4004L90.1001 78.1004L93.3001 72.2004L95.2001 65.5004L97.6001 61.5004L98.9001 58.7004L102.9 61.0004L104 58.4004L106.2 56.6004L110.2 56.2004L115.5 60.3004L120.1 62.9004L123.4 65.4004L126.2 68.9004L128.2 72.3004L131.6 75.8004L138.8 78.3004V88.8004L136.4 92.2004L138 97.4004L136.3 103.3L138.7 119.8L140.4 124.3L142.4 126.7L143.2 128V129.3L142.7 132.1L144.1 140.3V144L144.7 146L146.7 147.8L147.1 149.9L148 151.2L148.5 153.3L148.1 155.2L148 158.6L147.6 160.8L148.9 168.4L148.5 172.4L146.9 175.4L145.6 181.3L149.6 181.5L150.6 181.9L151.7 182.4L152.5 183L153.1 183.6L153.4 183.8L153.8 184L154.3 183.9L154.7 183.8L155.4 183.3L155.8 183.2H156.3L156.7 183.4L157.1 183.6L157.5 183.8L158.3 183.7L159.4 183.1L162.1 180.9L163.1 180.4L163.5 180.9L162.3 185.4V186.5L162.6 187.3L164.7 188.3L165.6 188.9L166.3 189.9L167.6 192.7L168.1 193.5L168.7 193.8L169.4 193.7L170 193.8L170.4 194L171.1 194.8L171.5 195L171.9 194.9L172.3 194.7L172.7 194.5L173.1 194.3L173.5 194.2H174L174.4 194.3L174.7 194.5L175.1 194.8L175.4 195.1L175.7 195.5L176.4 196.8L176.8 197.2L177.2 197.6L177.6 197.7L178.1 197.8L179.1 197.7L179.4 197.9L179.6 198.5L179.4 200.4V201.2L179.6 202.1V202.7L179.3 204L179.4 204.6L180 206.7L180.7 211.4L180.4 212.2L177.2 215.5L175.6 218.3L176.2 222.9L176.7 225.1L177.3 226.5L180.3 232.2V234.4L179.2 242.7L183.8 247.5L188.2 245.4L188.6 244.6L188.3 244.2L188 243.9L187.8 243.5L186.8 240.9L187.2 238.1L188.6 234.5L189.6 231.5L191.1 230.1L192.8 231.1L194.3 230.8L196.7 229.7L198.7 227L202.2 225.3L204.1 223.9L209.2 223.7L213.4 222.5L220.3 216.9L222.8 213.7L224.9 212.5L229.6 207.6L231.8 207.3L233.1 208.3L234.1 210.5L235.2 212.4V216L229.6 223.4L227.2 226L225.3 227.4L225 231.5L226.3 237.2L228.4 243.9L232.1 251.8L233.1 256.5L234.9 258.9L236.8 260.4L238.5 261.4L240.2 262.6L242.4 265.7L244.4 267.6L246 270.4L247.7 271.2L250.9 274.3L256 273.4L260.4 271.2L262.2 271.5L265.1 272.9L272.4 272.7L278.4 267.6L279.9 263L280.5 258.1L281.3 254.6L284.5 251.1L290 249L294.4 248.5L297.8 247.6L303.6 244.8L307.8 236.4L309.2 231.6L312.7 230.2L314 229.1L315.3 227.7L317.8 224.3L323.6 222.3L326.7 221.7L330.1 219L334.4 216.5L336.6 212.2L340.3 210.3L342.7 209.9L345.9 210.6L348.8 209.6L351.7 210.4L354.3 211.4L359.2 212.4L363.8 211.3L368.2 208.2L370.2 204.9L374.6 199.6L376.4 199.2L378 195.9L376.7 192.3L376.2 191.5L376.1 190.9V190.5L376.8 187L376.7 184.2L376.9 182.8L377.1 181.3L377.6 180.2L378.2 178.4L381.3 177.8L390.2 155.8L392.4 152.7L406.4 160L409.3 162.2L412.8 166L416.1 171L423 173.3L427.5 176L432.8 176.3L436.1 177.7L441.7 178L445.2 179.3L448 180.7L448.7 183.9L448.8 184.8L451.2 188.7L459.6 181L461.2 179.2L462.8 176L468.1 168.7L472.9 166L476.3 162.5L485.7 162.6L487.6 162.2L490.8 160.9L493.5 160.6L498.8 161.3L505.3 165L507.1 166.6L507.9 168.3L507.7 170.2L511.2 173L514 171.5L516.6 169.7L518.8 166.5L521.2 165.6L523.3 165.9L526.7 170.6L532.7 172.1L533.3 169.3L535.3 168.5H539.9L546.9 165.9L559.4 164.6L560.3 151.2L561.2 146.3L562.7 144.1L563.8 139.7V137.8L574.2 137.5L579.5 136.7L582.8 135L585.7 134.2L587.5 132L590.6 130.6L594.8 127.5L595.9 127L602 125.7L613.5 120.2L623.7 122.5L625.9 121L626.5 116.6L629.2 113.5L630.9 110.9L631.3 108.7L632.4 107L633.3 105.1L632.9 102.1L635 98.9004L635.5 96.7004L634.9 93.3004L634.1 91.1003L634.4 89.3004L636.2 87.1003Z" fill="#BABCC0" fill-opacity="0.5" stroke="#707079" stroke-linecap="round" stroke-linejoin="round"/>
<path fill-rule="evenodd" clip-rule="evenodd" d="M958 -194.5L957.7 -195.5L957.4 -196.2L957 -196.4L954.4 -197.3L954.1 -197.5L953.9 -197.9V-198.6L954.2 -199.7L954.3 -200.4L954.1 -200.9L954.4 -201.7L958 -203.4L956.3 -203.9H955.1L954.6 -203.8L953.6 -203.5L953.2 -203.3L952.9 -203.1L952.6 -202.8L952.4 -202.4L952.3 -202L952.2 -201.6L952.3 -200.7L952.2 -200.3L952 -200L951.6 -199.9L950.7 -200L950.2 -199.9L949.8 -199.8L949.5 -199.6L949.3 -199.5L948.8 -199L948.4 -198.7L948 -198.6L947.5 -198.5H947L946.2 -199.2L941.2 -205.6L940.9 -205.9L940.6 -206.2L940.4 -206.6L940.3 -207L940.4 -207.6L940.6 -208L940.7 -208.4L940.6 -208.8L940.1 -209.2L939.2 -209.8L938.8 -210.1L936.4 -212.8L936.3 -213.2L936.4 -213.7V-214.2L936.2 -214.6L935.7 -215L935.3 -215.4L935 -215.9L934.7 -217.5L934.3 -218.7L933.2 -220.3L930.6 -221.9L930 -222.1L928.9 -222.3L928.4 -222.1L927.1 -221.6L926.6 -221.4H926L925.5 -221.5L925.1 -221.7L924.8 -222.3V-222.8L924.9 -223.3L925.1 -223.6L925.2 -223.9L925 -224.2L924.6 -224.4L924 -224.7L922.4 -225L921.8 -225.5L921.5 -225.8L921.1 -226.2L920.3 -226.6L918.8 -227.1L917.8 -227.8L917.2 -228.3L916.6 -229.1L916.3 -229.4L915.7 -229.7L914.8 -229.8L913.1 -230H911.5L910.5 -229.8L910.1 -229.5L909.5 -228.9L909.2 -228.7H908.8L908.2 -228.9L907.6 -229.6L907.3 -230.1L906.6 -231.5L906 -233.3L905.6 -234.1L905.4 -234.4L905.1 -234.8L904.5 -235.3L904.3 -235.7L904.2 -236.1L904.3 -237L904.2 -237.3L904 -238L904.1 -239.2L903.7 -239.5H903.1L902.4 -239.7L899 -242L897.5 -242.2L896.6 -242.1L895.9 -241.7L895.1 -241L894.5 -240.7L893.8 -240.6L893.1 -240.2L892.5 -239.6L891.6 -238.4L891 -238H890.2L889.7 -238.4L889.3 -238.9L888.6 -239.2L887.9 -238.9L887.1 -238.6L886.3 -238.4L885.5 -238.8L884.7 -239.6L884.1 -239.8L883.5 -239.9L882.6 -240.2L876.8 -244.1L873.4 -245.4L871.2 -244.3L871 -243.5L871.2 -243.4L871.7 -243.6L872.3 -243.2L873.6 -242L873.8 -241.2L872.6 -240.9H871L869.9 -240.8L868.9 -240.3L865.5 -237.1L864.5 -236.8L865.1 -238.8L865.7 -239.8L865.4 -240.5L863.3 -241.4L863 -242.3L862.1 -243.2L861.3 -244.3L860.9 -244.6L860.4 -244.8L859.5 -244.7L858.9 -244.6L858.5 -244.3L857.7 -243.3L857.3 -243.1L856.9 -243L856.3 -243.2L855.6 -243.8L855.3 -244.3L855 -244.8L854.8 -245.3L854.5 -246.7L854 -247.1L853.3 -247.4L851.5 -247.5L849.9 -247.4L848.5 -247.6L845.9 -249L844.6 -249.9L844.3 -250.2L843.9 -250.6L843.4 -250.7H842.6L841.2 -250.1L839.1 -249.8L838.2 -250.5L837.9 -250.8L837.6 -251.3L837.4 -251.7L836.9 -253.5H836L834.5 -252.1L834 -252.5L833.5 -253L832.5 -254.1L831 -255.3L829.5 -256.2L827.4 -257.1L826.5 -258.3L823.4 -263.9L822.7 -265.9L823.3 -266.8L823.8 -267.2L823.2 -268.1L821.8 -269.4L821 -269.8L820.1 -269.6L818.4 -268.6L817.3 -267.5L816.4 -266.1L815.2 -265L813.5 -264.5L810 -264L808.2 -263.5L807 -262.8L806.7 -262.1V-261.4L806.6 -260.9L805.9 -260.5L805.1 -260.6L804.5 -261.2L804.1 -261.9L803.6 -262.2L798.3 -261.5L797.1 -261.6L796.9 -262.2L796 -263.7L795.1 -264.7L794.6 -264.2L793.9 -263.9L792.5 -263.8L791.5 -263.3L792 -261.6L790.3 -261.5L789.4 -261.3L788.8 -261.1L787.7 -260.2L787.4 -258.4L787.3 -256.7L787.1 -255.8L784.8 -252.3L784 -251.8L779.3 -250.6L778.3 -250.5L777.3 -250.9L774.9 -253.2L773.9 -253.7L771.7 -253.3L769.9 -251.8L766.7 -248L763.8 -245.8L762.1 -245L761.4 -245.8L761.6 -246.6L761.9 -247.4V-248.1L761.1 -248.4L760.5 -248.3L759.2 -247.9L751.8 -247.7L748.4 -248.2L745.9 -249.5L744.4 -252.2L743.4 -253.1L742.3 -252.3L742 -251L742.3 -245.5L740.4 -246.7L738.1 -248.9L737.7 -249.1L736.1 -248.1L735.2 -247.2L734.7 -246.5L734 -246.8L732.9 -247.8L732.5 -247.6L731.6 -246.8L729.9 -246.3L728.6 -245.5L726.4 -243.5L726.1 -243L725.9 -242.4L725.7 -241.8L725.6 -241.1L725.4 -240.3H724.8L724.2 -240.6L724.1 -240.9L723.5 -241.1L722.6 -241.5L721.6 -241.8L720.4 -241.4L719.4 -240.5L717.3 -238.2L716.8 -237.4L716.7 -235.9L717 -234.7L716.9 -233.7L715.8 -232.8L714 -233.4H713.1L711.1 -231L709.9 -230L705.5 -228.7L703.9 -226.8L705.6 -224.4L708.2 -222.1L709.6 -220.3L709.5 -215.4L709.3 -215.3L708.9 -215.4L708.3 -215L707.3 -213.5L706.9 -211.9L707.4 -210.6L709.3 -210.1L710.1 -210L710.9 -209.8L711.4 -209.3L711.6 -208.7L711.3 -208.4L703.8 -208.5L702.4 -209H700.2L699.3 -208.8L698.5 -208.1L697.8 -206.5L697.7 -206.3L697.4 -206.1L696.8 -206.4L696.1 -207L695.6 -207.2L693.5 -206.8L691.7 -205.7L690.4 -203.9L689.9 -201.7L690 -200.9L690.1 -200.3L690 -199.8L689.4 -199.1L689 -199L687.7 -198.7L687.3 -198.5L680.5 -192.1L679.5 -190.7L679 -190L678.8 -189.8L677 -186.5L676.9 -186L676.8 -185.6L676.9 -185.1L677.1 -184.7L677.9 -183.2L678.1 -182.8V-182.3L678 -181.9L677.8 -181.5L677.5 -181.3L677.1 -181L676.6 -180.9L676 -180.8H675.3L674.7 -181L674.3 -181.4L673.9 -182.2L673.7 -182.8L673.6 -184L673.2 -185.4L672.9 -187.3L672.8 -187.6L672.4 -187.9L671.6 -188.1L666.5 -189.2L665.5 -189.3L663.8 -189.1H663.3L662.7 -189.4L662 -189.9L660.9 -191.1L660 -192.3L659.3 -192.7L657.6 -192.6L649.7 -188L647.7 -186.4L647.3 -185.9L646.7 -185.1L646.2 -184.8L645.6 -184.7L645.2 -184.9L644.3 -185.1L642.8 -186L642 -186.3H641.1L640.6 -185.9L639.8 -184.8L639.4 -184.5L638.9 -184.3L637.6 -183.6L636.8 -183.4L636.4 -183.5L635.7 -183.9L635.2 -184L634.8 -183.8L634.4 -183.4L633.9 -182.8L629.1 -181.5L627.9 -180.8L622.5 -175.8L621.9 -175.5L621 -175.2L620 -175.1H619.2L618.4 -175L617.6 -174.3L616.3 -172.5L616 -172.3L615.4 -172V-171.3L615.8 -170L615.3 -168.9L614.2 -167.3L613 -165.9L611.9 -165.3L611.5 -165L610.7 -163.8L610.4 -163.5H608.6L607.7 -163.4L607 -162.9L606.6 -162.4L604.6 -158.8L604.7 -158.2L604.9 -157.7V-157.1L603.4 -154.3L602.3 -152.9L601.2 -151.9H600.6L599.7 -152.1L599 -152.2L598.3 -151.1H598.2V-149.8V-148.4L598 -147.1L595.8 -140.8L595 -139.2L593.5 -136.8L591.4 -134.8L589.6 -133.6L589.3 -132.5L589.6 -131.5L590.2 -130.5L590.9 -129.8L591 -128.8L590.7 -127.2L589 -121L588.2 -119.2L586.9 -117.1L585.5 -112.5L585.2 -107.1L585.7 -104.7L586.7 -103.3L587.5 -102.8L587.9 -102.3L587.7 -101.4L579.2 -82.8998L571.1 -65.2998L553.1 -27.2998L547.9 -16.3998L547.4 -15.2998L547.9 -14.2998L548.5 -11.0998L549.2 -9.69983L552.5 -5.2998L554 -3.99982L555 -3.49982L557.5 -3.39984L557.7 -3.09979L558.1 -1.39984L558.5 -1.09979L560.2 -1.19983L561 -1.09979L561.6 -0.799805L565.1 3.50018L567.3 4.90021L570.5 5.40021L571.3 6.10016L571.7 7.60016L572 9.40021L572.3 10.8002L572.9 11.8002L573.9 12.4002L575.1 12.9002L576.4 13.2002L577.5 13.4002L578.6 13.6002L580.9 14.1002L582.6 17.0002L590.2 32.7002L590.7 33.2002L591.2 33.5002L591.6 33.6002L592.3 33.8002H593.1L594.3 36.0002L594.6 36.6002L594.7 37.0002L595.6 37.6002L595.9 38.1002L596.2 38.3002L599.4 39.8002L599.7 40.3002L599.9 42.2002L600.1 43.2002L600.5 43.9002L607.1 50.0002L611.2 54.8002L613.7 56.8002L616.7 58.4002L617.9 59.6002L618.4 61.3002L619.2 62.5002L621 62.8002L624.6 62.7002L627.2 64.3002L629.8 66.8002L632.6 68.6002L635.5 68.2002H636.7L641 67.7002L643.4 68.0002L643.7 68.4002L643.9 68.9002L644.2 71.0002L644.3 71.5002L644.5 71.9002L644.8 72.2002L645.2 72.4002L647.1 72.8002L647.6 72.9002L649 73.9002L649.9 74.2002L652.1 74.5002L653.6 73.8002L655.9 72.5002L660.7 69.0002L662.5 67.3002L663.3 66.1002V65.6002L663 64.6002V64.1002L663.1 63.7002L663.3 63.3002L663.7 62.9002L664.7 62.4002H665.3L665.8 62.6002L668.2 64.5002L669.5 63.7002L669.9 63.4002L670.7 62.7002L671.8 61.8002L673.1 61.2002L677.4 59.9002H678.3L681 60.9002L683.1 61.0002L683.5 59.7002L683.4 58.2002L683.9 57.4002L685.8 57.8002L686.8 58.7002L687.5 59.9002L688.3 60.9002L689.8 61.6002L691.3 61.8002L692.5 62.5002L693 64.2002L694 65.6002L696.4 65.8002L706.2 63.9002L706.7 64.2002L707.4 64.9002L708.5 66.4002L708.9 68.7002L709.1 69.3002L710 70.1002L713.3 71.9002L714.5 72.3002L717.9 72.2002L719.6 72.4002L720.9 73.0002V73.5002L720.3 74.4002L721 74.3002L722.5 73.5002L723.6 73.4002L724.1 73.7002L724.5 74.0002L725.4 74.2002L726 74.0002L726.7 73.3002L727.2 73.0002L727.8 72.9002H728.1H728.4L729 73.0002L729.7 72.7002L731.3 71.5002L731.9 71.2002L733.9 71.4002L735 72.4002L736 73.6002L737.3 74.2002L738.2 73.9002L739.2 72.6002L740.4 72.3002H742.5L743.5 72.0002L744.3 71.2002L743.8 69.5002L744.5 68.0002L745.9 66.9002L747.4 66.4002L750.3 66.6002L751 66.3002L750.5 64.6002L748.9 63.1002L748.4 62.1002L749.2 61.6002L752.8 60.9002L754.5 61.3002L755.9 62.0002L757.3 62.1002L758.8 60.9002V60.2002L758.4 59.5002V58.9002L759.6 58.6002L762.7 58.9002L763.7 57.8002L764.3 57.4002H765.6L765.9 57.3002L766.2 56.8002H766.6L766.9 57.0002L767.3 57.4002L767.6 57.8002V58.0002L769.4 58.1002L770.3 58.0002L771 57.7002L772 56.3002L772.4 55.4002L772 55.0002L771.1 54.8002L770.4 54.2002L770.1 53.5002L770.7 52.6002L771.3 52.7002L773.2 53.6002L773.8 53.8002L775.4 52.8002L774.4 51.9002L772.9 50.8002L773.1 49.3002L774.6 48.7002L776.3 48.9002L777.9 48.8002L779.1 47.2002L778.6 46.4002L778 46.0002L777.2 46.1002L776.5 46.6002L775.8 44.9002L774.9 43.0002L775.9 42.6002L776.4 42.4002H776.9L777 42.3002L776.2 42.2002L776.3 40.9002L774.6 36.2002L774.5 33.7002L776.1 29.6002L777.2 28.4002L777.3 27.6002L776.6 27.0002L775.4 26.7002H773.8L772.8 26.9002L772.1 26.6002L771.2 25.2002L770.7 23.9002L769.6 19.8002L768.6 18.1002L764.9 15.0002L763.5 13.3002L761.4 8.30017L755.2 -6.49982L754.5 -7.7998L752.3 -11.0998L751.3 -11.9998L750.3 -12.5998L749.2 -13.4998L748.6 -13.7998L749.6 -15.8998V-17.2998L750.2 -18.0998H751L751.7 -17.0998L752.2 -17.6998L752.8 -19.0998L753.2 -19.4998H753.9L754.1 -19.0998L754.3 -18.4998L755 -18.2998L755.3 -18.4998L757.7 -21.0998L758.2 -21.3998L760.3 -22.1998L762.5 -22.4998L763.3 -22.7998L764.6 -23.4998L766.7 -23.8998L768.4 -24.5998L770.8 -26.0998L771.2 -26.3998L771.3 -26.5998L771.8 -27.3998L772.2 -28.2998L772.4 -29.2998L772.8 -29.5998L774.5 -29.4998L774.9 -29.8998L775.3 -31.3998L776.1 -32.7998L779.2 -36.1998L779.7 -36.5998L780 -37.0998L780.2 -38.1998L779.9 -38.8998L779.5 -39.3998L779.2 -39.8998L779.4 -40.4998L780 -41.0998L780.7 -41.2998L781.4 -41.6998L782.2 -42.6998L782.4 -43.4998L782.5 -45.4998L782.7 -46.1998L784 -46.9998L787.1 -47.9998L787.7 -48.1998L788.5 -48.7998L788.3 -49.7998L787.9 -51.7998V-52.5998L788.4 -53.3998L789.2 -53.8998L789.9 -54.1998L790.5 -54.4998L794.8 -59.7998L796.5 -62.9998L796.4 -63.4998L796.2 -64.9998L796.7 -65.5998L797.2 -64.9998L797.6 -65.1998L798.3 -65.4998L798.7 -65.5998L798.1 -66.4998L797.1 -67.4998L796.8 -68.2998L798 -68.5998L798.9 -68.9998L799.9 -69.9998L801.3 -72.0998L801.6 -72.1998L802 -72.0998H802.3L802.4 -72.3998V-73.0998L802.5 -73.2998L802.7 -73.5998L802.8 -74.0998L802.9 -74.7998V-75.8998L803.5 -76.5998L804.7 -76.9998L805.5 -77.6998L805 -79.0998L813.6 -78.5998L815.6 -79.4998L816.3 -80.7998L816.8 -82.0998L817.4 -83.2998L818.5 -83.8998L819.9 -83.6998L820.8 -82.8998L821.5 -81.9998L822.4 -81.4998H824.4L825.1 -81.6998L825.2 -82.1998V-82.8998L825.5 -83.5998L828.4 -87.3998L831.7 -90.9998L832 -91.4998L834 -94.4998L835.1 -95.7998L835.8 -96.8998L836.5 -96.5998L840.6 -96.9998L841.5 -97.0998L843.1 -96.3998L844.8 -96.1998L846.6 -96.4998L848.1 -97.0998L849.5 -98.3998L851.6 -101.9L853 -103.4L854.6 -104L865.1 -104.7L866.6 -105.1L870.9 -108L872.1 -108.1L873.5 -107.1L874.5 -105.9L875.2 -104.5L875.6 -102.8L876.2 -99.2998L877 -97.9998H880.3L881.5 -96.9998L883.7 -92.8998L884.3 -92.3998L886.6 -91.9998H886.7L887.9 -91.4998L889 -90.7998L889.6 -91.7998L891.2 -95.8998L891.6 -97.4998L891.8 -97.9998L892.1 -98.5998L894.1 -100.3L894.3 -100.7L894.5 -101.2L894.6 -102L894.5 -103.8L894.7 -104.4L895.1 -105L896.6 -106.3L897.7 -107.8L902.9 -109.7L906.9 -110.5H907.4L909.1 -109.9L909.6 -109.8L910.3 -109.9L911.1 -110.1L912.4 -110.6L913.3 -110.8L914 -111.2L914.5 -111.6L914.8 -112.6L914.9 -113.2L914.8 -113.7L914.5 -114.3L914.4 -114.6L914.3 -115L914.4 -115.4L914.7 -116.3L915.5 -117.4L917.1 -119.1L917.5 -119.4L918.8 -119.9L922.7 -120.6L925.3 -123.8L925.7 -124.2L926.3 -124.6L927.2 -125.1L929.2 -125.7L930.5 -126.4L931.6 -127.6L936.6 -134L937.1 -134.4L938 -134.9L938.9 -135.1L943.3 -135.4L944.2 -135.6H944.3L944.4 -135.7L944.8 -136.2L945.3 -137L946.2 -139.1L946.8 -140.2L947.8 -141.4L949.9 -142.9L950.4 -143.9L950.8 -146.6L950.5 -148L950.1 -148.9L949.8 -149.2L949.5 -149.5L947.9 -150.8L947.6 -151.1L947.4 -151.5L947.2 -151.9L947 -152.3L946.9 -152.8L947 -153.7L947.4 -154.8L948.2 -156.9L949.2 -158.5L949.6 -158.8L949.8 -159.1L950.1 -159.6V-160.2L950 -163.3L950.1 -163.9L950.2 -164.5L950.7 -165.2L951.5 -166.4L952.1 -167.6L953.3 -171.1L953.6 -171.7L953.9 -172.1L954.2 -172.5L954.3 -173L954.2 -173.7L954 -174.2L953.1 -175L952.8 -176V-177.1L953.2 -180.5V-181.1L953.1 -181.6L953 -182L952.7 -182.4L951.8 -183.8L951.6 -184.2L951.4 -184.6L951.3 -185.1L951.4 -185.7L951.6 -186.3L952 -186.9L952.4 -187.3L953.1 -187.9L953.4 -188.2L957.7 -190.5L958 -190.7L958.2 -191.4L958.3 -192.4L958 -194.5Z" fill="#BABCC0" fill-opacity="0.5" stroke="#707079" stroke-linecap="round" stroke-linejoin="round"/>
<path d="M989.9 108.9L988.9 108.3L988.7 108.1L988.4 107.7L988.3 107.3L988.2 106L988.1 105.4L987.9 105L987.7 104.8L987.2 104.5L986.4 104.1L986 103.9L985.7 103.4L985.5 102.8V101.1L985.4 100.4L984.9 99.6998L984.8 98.5998L984.7 97.9998L984.8 97.2998V96.6998V96.0998L984.4 95.2998L983.6 94.1998L981.8 92.8998L980.9 92.6998L980.5 92.0998L980.4 91.5998V91.0998L980.3 90.5998L980.1 90.0998L979.9 89.6998L979.6 89.3998L979.2 89.1998L977.3 89.0998L976.8 88.8998L976.4 88.5998L975.8 87.9998L975.4 87.7998H975.1L974.8 87.9998L974.3 88.0998L973.8 87.9998L973.4 87.6998L973 87.1998L972.8 86.6998L972.6 86.0998L972.2 85.5998L971.4 85.1998L971.2 84.5998L971.1 84.0998V83.4998L971 83.1998L970.7 82.8998L970.1 83.0998L969.6 83.1998L969.2 83.4998H968.6L967.8 83.1998L966.4 82.3998L964.6 80.8998L961.9 79.1998L960.8 78.2998L960.7 77.7998L960.3 77.2998L959.7 76.9998L958.3 76.8998L957.7 77.1998L957.3 77.5998L957.1 77.7998L956.8 77.8998L955.7 77.1998L954.6 76.8998L952.8 75.9998L951.7 75.7998L950.9 75.2998L950.2 74.9998L949.7 74.8998L947.1 75.5998H946.6L946 75.4998L945.3 75.1998L943.5 73.8998L941 72.9998L935.7 69.1998L935.3 68.9998H934.8H934.4L933.9 69.1998L933.6 69.3998L932.2 70.2998L931.7 70.4998L931.3 70.6998H930.7H927.3L926.9 70.7998L926.6 70.9998L926 71.7998L925.7 72.0998L925.4 72.2998L924.9 72.3998H924.4L923.9 72.2998L922.1 71.5998L919.4 69.9998L907.6 66.7998L906.8 66.3998L906.2 65.9998L906.1 65.0998L906.2 63.6998L906.1 63.0998L905.9 62.2998L905.5 61.6998L905.1 61.3998L900.2 58.8998L899.8 58.7998L899.6 58.8998L899.2 58.9998L898.9 59.1998L898.6 59.4998L898.4 59.9998L898.3 60.4998V63.2998L898.2 63.7998L898 64.2998L897.9 64.6998L897.6 65.0998L897.3 65.2998L896.8 65.3998L889.6 63.8998L889.2 63.6998L888.8 63.3998L888 62.3998L886.3 59.3998L885.9 59.1998L885.4 59.0998H884.3L883.8 58.9998L883.3 58.8998L882.9 58.5998L882.6 58.1998L882.3 57.6998L881.7 56.2998L881.6 55.8998V55.0998L882.4 51.9998L882.5 50.9998V50.2998L881.2 48.0998L881 47.5998L881.1 46.8998L881.4 45.7998L883.4 41.1998L883.7 40.8998L884 40.9998L889.1 43.1998L889.5 43.2998L890.2 42.7998L891 41.7998L892.4 39.3998L893.2 38.5998L893.9 38.2998L894.7 38.6998L895.2 38.5998L895.8 38.0998L896.7 36.5998L897.2 35.8998L897.7 35.3998L898.8 34.7998L899.2 34.5998L899.5 34.3998L899.6 33.9998V33.6998L899.4 33.1998L898.9 32.3998L898.8 31.9998V31.6998L899.2 31.2998L899.6 31.0998L900.6 30.7998L901.3 30.2998L902.3 29.4998L902.7 29.2998H903.1L904.6 29.5998H905L905.5 29.2998L906.5 27.4998L906.7 27.0998L908.3 25.6998L908.6 25.2998L908.9 24.7998L909 23.9998V23.3998L908.8 22.6998L908.5 21.8998L905.3 19.0998L901.4 14.2998L900.9 13.2998L897.9 15.1998L889.1 20.8998L884.3 22.8998L879.3 23.9998L872.5 26.5998H869.9L866.2 25.1998L865 24.9998L863.7 25.2998L860.5 27.2998L858.6 27.8998L854.9 27.3998L853.1 27.6998L851.6 28.9998L851 30.1998L849.7 32.5998L848.5 33.7998L847.8 34.3998L846.9 35.6998L846.3 36.2998L845.6 36.5998L843.4 36.8998L842 37.4998L840.4 38.3998L839.3 39.6998L839.1 41.3998L839.9 42.4998L841 43.0998L841.9 43.7998L842.1 45.7998L841.6 47.6998L840.6 48.8998L834.2 53.8998L833.6 54.9998L833.7 55.6998L834.6 57.1998L834.9 58.0998L834.8 58.7998L833.5 62.7998L833.2 63.3998L832.6 64.1998L832 64.6998L831.4 64.9998L830.7 65.4998L830.3 66.2998L829.8 68.0998L829.9 69.4998L830.1 70.8998L830 72.5998L828.2 71.7998L819.3 70.9998L817.7 70.4998L816.2 69.6998L815.5 69.1998L814.9 68.5998L814.2 68.0998L813.4 67.7998L812.7 67.8998L811.3 68.5998L810.5 68.6998L807.3 68.2998L804.7 67.4998L802.4 65.9998L798.3 61.3998L793.7 57.8998L793.3 57.0998L793.1 56.2998V55.5998L792.8 54.7998L791 52.1998L789 50.2998L788.8 49.3998L788.5 48.3998L785.8 47.1998L784.6 46.1998L783.8 44.7998L783.2 42.6998L782.6 42.0998H781.4L779.8 42.7998L779.3 42.8998L778.5 42.7998L777 42.2998L776.9 42.3998H776.4L775.9 42.5998L774.9 42.9998L775.8 44.8998L776.5 46.5998L777.2 46.0998L778 45.9998L778.6 46.3998L779.1 47.1998L777.9 48.7998L776.3 48.8998L774.6 48.6998L773.1 49.2998L772.9 50.7998L774.4 51.8998L775.4 52.7998L773.8 53.7998L773.2 53.5998L771.3 52.6998L770.7 52.5998L770.1 53.4998L770.4 54.1998L771.1 54.7998L772 54.9998L772.4 55.3998L772 56.2998L771 57.6998L770.3 57.9998L769.4 58.0998L767.6 57.9998V57.7998L767.3 57.3998L766.9 56.9998L766.6 56.7998H766.2L765.9 57.2998L765.6 57.3998H764.3L763.7 57.7998L762.7 58.8998L759.6 58.5998L758.4 58.8998V59.4998L758.8 60.1998V60.8998L757.3 62.0998L755.9 61.9998L754.5 61.2998L752.8 60.8998L749.2 61.5998L748.4 62.0998L748.9 63.0998L750.5 64.5998L751 66.2998L750.3 66.5998L747.4 66.3998L745.9 66.8998L744.5 67.9998L743.8 69.4998L744.3 71.1998L743.5 71.9998L742.5 72.2998H740.4L739.2 72.5998L738.2 73.8998L737.3 74.1998L736 73.5998L735 72.3998L733.9 71.3998L731.9 71.1998L731.3 71.4998L729.7 72.6998L729 72.9998L728.4 72.8998H728.1H727.8L727.2 72.9998L726.7 73.2998L726 73.9998L725.4 74.1998L724.5 73.9998L724.1 73.6998L723.6 73.3998L722.5 73.4998L721 74.2998L720.3 74.3998L720.9 73.4998V72.9998L719.6 72.3998L717.9 72.1998L714.5 72.2998L713.3 71.8998L710 70.0998L709.1 69.2998L708.9 68.6998L708.5 66.3998L707.4 64.8998L706.7 64.1998L706.2 63.8998L696.4 65.7998L694 65.5998L693 64.1998L692.5 62.4998L691.3 61.7998L689.8 61.5998L688.3 60.8998L687.5 59.8998L686.8 58.6998L685.8 57.7998L683.9 57.3998L683.4 58.1998L683.5 59.6998L683.1 60.9998L681 60.8998L678.3 59.8998H677.4L673.1 61.1998L671.8 61.7998L670.7 62.6998L669.9 63.3998L669.5 63.6998L668.2 64.4998L665.8 62.5998L665.3 62.3998H664.7L663.7 62.8998L663.3 63.2998L663.1 63.6998L663 64.0998V64.5998L663.3 65.5998V66.0998L662.5 67.2998L660.7 68.9998L655.9 72.4998L653.6 73.7998L652.1 74.4998L649.9 74.1998L649 73.8998L647.6 72.8998L647.1 72.7998L645.2 72.3998L644.8 72.1998L644.5 71.8998L644.3 71.4998L644.2 70.9998L643.9 68.8998L643.7 68.3998L643.4 67.9998L641 67.6998L636.7 68.1998H635.5L632.6 68.5998L633.7 81.0998L635.1 82.7998L636.7 85.0998L636.2 87.0998L634.4 89.2998L634.1 91.0998L634.9 93.2998L635.5 96.6998L635 98.8998L632.9 102.1L633.3 105.1L632.4 107L631.3 108.7L630.9 110.9L629.2 113.5L626.5 116.6L625.9 121L623.7 122.5L613.5 120.2L602 125.7L595.9 127L594.8 127.5L590.6 130.6L587.5 132L585.7 134.2L582.8 135L579.5 136.7L574.2 137.5L563.8 137.8V139.7L562.7 144.1L561.2 146.3L560.3 151.2L559.4 164.6L546.9 165.9L539.9 168.5H535.3L533.3 169.3L532.7 172.1L533.5 174.5L532.8 175.1L532.3 177L531.4 178.1L531.1 180.9L533.1 182L534.7 184.3L535.3 186.5L533.4 189.3L532.2 190.4L530.8 191L530.2 192.2L530.3 193.3L530 195L529 196.1V198.2L529.2 199.6L528.4 201.8L525.4 203.5L523.8 206.3L512.9 211L509.8 210.5L503.2 208.2L500.5 209.3L496.9 212L494.1 218L491.5 219.6L479.8 221L476.1 222.8L470.6 222.3L467.7 225.6L464.3 228.5L463.9 231.9V235.7L465.8 239L466.8 243L467.3 246L467 250.2L469.5 253.2L470.8 256.2L474 259.2L470.7 262.8L465.8 262.4L460.7 262.8L456.9 264.5L455.4 265L454.6 265.1L453.7 264L453.1 263.1L452.6 261.8L452.3 261.4L452 261.1L451.7 260.8L451.4 260.4L451.2 260.3L451.1 260.9L451.5 263L451.6 266.2L450.4 268.1L447.7 269.1L446 270.1L442.4 275L442 277.7L439.6 281.3L440.8 285L439.6 288.6L426.7 309.5L426 312.6L427 316.1L438.8 316.4L448.2 315.1L465.7 315.9L479 318.9L484.7 321.5L488.6 324.6L490 330.8L493.8 335.8L492.7 338L479 344.2L477.4 346L476.5 347.4L473.7 350.4L480.5 351L482.4 350.3L484.3 350.7L487.1 351.8L488.6 354.1L497.9 358.7L494.4 364.4L494.3 365.6L494.4 368.5L507.4 371.6L515.5 372.4L518.8 373.6L520.4 374L533.9 375.2L538.8 377.3L539.9 378.1L541.2 378.8L550.4 379.9L551.8 380.5L554.5 382.9L557.8 384.6L564.3 386.4L565.7 386.5L570.5 385.6L572.3 385.8L576.4 386.9L581.6 387.1L583.2 387.6L584.2 389H584.7L585.2 388.3L586.5 387.3L586.7 386.5L586.4 385.8L585.7 385.4L585 384.8L584.7 383.7L585.2 382.3L588.8 379L589.6 378.4L590.9 376.8L591.7 375L590.7 371.3L591.8 369.9L593.6 368.9L598.1 367.6L604.9 366.7L611.8 366.8L618.2 368.6L620.9 369.7L623.5 371.6L626.2 372.1L628.3 373.3H630.1L633.9 372.8L636.1 373.1L640.1 374.4L642.4 374.7L644.4 374.2L645.9 373.2L647.6 372.7L650 373.4L650.2 373.1L650.4 372.9L650.5 372.1L649.8 371.3L648.4 369L646.2 367.4L645.9 366.9L645.5 366.1L644.1 365.4L643.7 364.4L643.9 362.2L645.2 357.1L646.6 354.2L648.6 351.7L651 349.8L656.6 347L662.8 345.1L669.5 344.1L679.8 344.6L689.9 346.6L692.7 348.3L694.5 349.1L695.8 348.9L697.3 348.2L699.3 348.1L705.7 349.1L708.8 348.9L711.8 348.1L719 344.4L720.7 344.2L721.2 343.8L721.7 342.1L722.2 341.7L723.2 341.6L730.4 338.5L732.9 337L736.6 336.5L738.1 336.1L742.3 332.4L744 331.8L745.8 331.7L747.3 331.3L753.9 327.8L755.4 327.5L756.1 327.3L756.7 326.7L757.1 326L757.3 325.3L757.5 324.7L758.1 324.1L759.3 323.1L765 320.4L765.7 319.5L773.8 313.9L774.1 313L774.3 312.7L774.5 312.8L774.7 313L775.1 313.2H775.4L777.2 312.1L781.3 308.8L783.1 306.9L783.7 304.6L784.5 305L785.1 305.1L785.7 304.9L786.3 304.6L788 302L788.4 301.8L789.2 301.1L794.6 299L797.1 297L803.9 289.8L805.2 289L808.9 287.6L810.4 287.3L811.2 286.9L812.7 285.3L816.3 283.6L816.6 283.1L816.7 282.6V282.2L816.8 281.9L817.9 281.2L818.8 279.8L819.5 279.1L821.8 278.3L829.6 271.8L831.2 269.9L831.9 268L832.5 265.3L833.9 262.9L835.8 261L840 259.8L842.3 258.6L845.8 256L849.6 254L851.3 252.6L851.6 251.2L852.8 250.5L855.2 248.4L857.2 247.4L865.6 240.8L866.1 239.8L866.6 238.1L868 236.3L870.8 233.3L871.4 232.8L872.7 232.2L873.3 231.6L875.1 229.1L885.2 219.6L885.9 218.8L889.9 216.3L897.7 205.6L907 195.5L909.1 192.3L909.8 190.6L910.1 189.2L910.9 188.1L915.9 185.8L916 185.4L916.3 184.4L916.4 184L916.6 183.8L917.4 183.4L918.8 180.9L919 180.1L919.5 178.7L920.6 177L923.1 174.3L925.6 172.5L926.4 171.3L926.7 169.1L927.1 168.6L929.3 167.3L930.8 164V163.6L930.5 163.2L930.4 162.8L930.8 162.2L931.2 162.1L932 162.2H932.4L933.2 161.9H933.9L934.6 161.7L936.5 160.3L939.5 159.2L940.7 158.5L943.1 155.8L944.5 154.7L946.2 154.3L946.6 154.1L947.2 153.6L947.7 152.9L948.2 151.2L948.9 150.7L950.6 150L955.2 144.3L955.8 142.8L957.3 141.6L959 140.7L963.7 139.4L965.1 138.7L976.1 128.2L980.1 123.5L982.5 118.2L984.7 116.7L990.2 109.3L989.9 108.9Z" fill="#BABCC0" fill-opacity="0.5" stroke="#707079" stroke-linecap="round" stroke-linejoin="round"/>
<path d="M73.108 345.388H71.548C70.836 344.556 70.004 344.14 69.052 344.14C68.124 344.14 67.34 344.472 66.7 345.136C66.068 345.8 65.752 346.6 65.752 347.536C65.752 348.456 66.068 349.26 66.7 349.948C67.34 350.636 68.116 350.98 69.028 350.98C69.484 350.98 69.924 350.876 70.348 350.668C70.78 350.452 71.148 350.164 71.452 349.804H73.048C72.624 350.548 72.056 351.128 71.344 351.544C70.64 351.96 69.864 352.168 69.016 352.168C67.76 352.168 66.684 351.712 65.788 350.8C64.9 349.88 64.456 348.788 64.456 347.524C64.456 346.252 64.9 345.172 65.788 344.284C66.684 343.396 67.764 342.952 69.028 342.952C70.036 342.952 70.94 343.24 71.74 343.816C72.276 344.2 72.732 344.724 73.108 345.388ZM80.7229 352H79.4749V350.968H79.4509C79.2269 351.36 78.9109 351.66 78.5029 351.868C78.1029 352.068 77.6669 352.168 77.1949 352.168C76.1949 352.168 75.3549 351.84 74.6749 351.184C74.0029 350.528 73.6669 349.7 73.6669 348.7C73.6669 347.692 74.0029 346.852 74.6749 346.18C75.3469 345.508 76.1869 345.172 77.1949 345.172C77.6589 345.172 78.0909 345.268 78.4909 345.46C78.8909 345.644 79.2109 345.92 79.4509 346.288H79.4749V345.352H80.7229V352ZM79.4989 348.688C79.4989 348.016 79.2829 347.452 78.8509 346.996C78.4189 346.54 77.8669 346.312 77.1949 346.312C76.5469 346.312 76.0029 346.544 75.5629 347.008C75.1309 347.472 74.9149 348.032 74.9149 348.688C74.9149 349.32 75.1349 349.868 75.5749 350.332C76.0149 350.796 76.5509 351.028 77.1829 351.028C77.8309 351.028 78.3789 350.8 78.8269 350.344C79.2749 349.888 79.4989 349.336 79.4989 348.688ZM89.5416 348.76C89.5416 349.704 89.2176 350.508 88.5696 351.172C87.9296 351.836 87.1336 352.168 86.1816 352.168C85.7016 352.168 85.2456 352.076 84.8136 351.892C84.3896 351.7 84.0656 351.416 83.8416 351.04H83.8176V354.22H82.5696V345.352H83.7096V346.372H83.7336C84.2936 345.572 85.0816 345.172 86.0976 345.172C87.1056 345.172 87.9296 345.516 88.5696 346.204C89.2176 346.892 89.5416 347.744 89.5416 348.76ZM88.2936 348.688C88.2936 348.048 88.0696 347.492 87.6216 347.02C87.1816 346.548 86.6456 346.312 86.0136 346.312C85.3816 346.312 84.8536 346.544 84.4296 347.008C84.0056 347.472 83.7936 348.024 83.7936 348.664C83.7936 349.32 84.0056 349.88 84.4296 350.344C84.8616 350.8 85.4016 351.028 86.0496 351.028C86.6896 351.028 87.2216 350.8 87.6456 350.344C88.0776 349.888 88.2936 349.336 88.2936 348.688ZM97.2522 348.592C97.2522 348.8 97.2402 349.008 97.2162 349.216H91.7082C91.8362 349.744 92.0962 350.18 92.4882 350.524C92.8882 350.86 93.3562 351.028 93.8922 351.028C94.2842 351.028 94.6522 350.928 94.9962 350.728C95.3482 350.528 95.6122 350.256 95.7882 349.912H97.0362C96.7802 350.592 96.3642 351.14 95.7882 351.556C95.2122 351.964 94.5642 352.168 93.8442 352.168C92.9082 352.168 92.1082 351.82 91.4442 351.124C90.7882 350.428 90.4602 349.608 90.4602 348.664C90.4602 347.696 90.7882 346.872 91.4442 346.192C92.1002 345.512 92.9082 345.172 93.8682 345.172C94.8042 345.172 95.6002 345.508 96.2562 346.18C96.9202 346.852 97.2522 347.656 97.2522 348.592ZM96.0042 348.256C95.9722 347.712 95.7402 347.252 95.3082 346.876C94.8842 346.5 94.4002 346.312 93.8562 346.312C93.3122 346.312 92.8242 346.5 92.3922 346.876C91.9682 347.252 91.7402 347.712 91.7082 348.256H96.0042ZM105.714 344.308H104.01V352H102.714V344.308H101.01V343.12H105.714V344.308ZM112.859 348.652C112.859 349.612 112.511 350.44 111.815 351.136C111.119 351.824 110.271 352.168 109.271 352.168C108.287 352.168 107.443 351.824 106.739 351.136C106.035 350.44 105.683 349.604 105.683 348.628C105.683 347.66 106.035 346.844 106.739 346.18C107.451 345.508 108.295 345.172 109.271 345.172C110.255 345.172 111.099 345.508 111.803 346.18C112.507 346.852 112.859 347.676 112.859 348.652ZM110.927 350.332C111.383 349.86 111.611 349.3 111.611 348.652C111.611 348.004 111.383 347.452 110.927 346.996C110.471 346.54 109.919 346.312 109.271 346.312C108.623 346.312 108.071 346.544 107.615 347.008C107.159 347.464 106.931 348.016 106.931 348.664C106.931 349.312 107.159 349.868 107.615 350.332C108.071 350.796 108.623 351.028 109.271 351.028C109.919 351.028 110.471 350.796 110.927 350.332ZM122.474 345.352L120.014 352H119.318L117.878 347.524H117.854L116.414 352H115.73L113.246 345.352H114.578L116.054 349.672H116.078L117.458 345.352H118.274L119.654 349.672H119.678L121.142 345.352H122.474ZM129.325 352H128.077V348.388C128.077 347.004 127.525 346.312 126.421 346.312C125.837 346.312 125.397 346.508 125.101 346.9C124.813 347.284 124.669 347.776 124.669 348.376V352H123.421V345.352H124.585V346.06H124.609C125.057 345.468 125.705 345.172 126.553 345.172C127.617 345.172 128.401 345.568 128.905 346.36C129.185 346.792 129.325 347.36 129.325 348.064V352Z" fill="#D7DADD"/>
<path d="M218.2 305.16L214.808 317H213.304L210.696 307.288H210.664L208.072 317H206.552L203.176 305.16H204.392L207.288 315.48H207.32L210.136 305.16H211.24L214.072 315.464H214.104L217 305.16H218.2ZM227.307 312.712C227.307 312.755 227.301 312.808 227.291 312.872C227.291 312.936 227.291 312.989 227.291 313.032H219.323C219.365 313.885 219.723 314.627 220.395 315.256C221.077 315.885 221.851 316.2 222.715 316.2C223.408 316.2 224.043 316.013 224.619 315.64C225.205 315.267 225.616 314.765 225.851 314.136H227.035C226.715 315.053 226.16 315.795 225.371 316.36C224.581 316.925 223.701 317.208 222.731 317.208C221.472 317.208 220.395 316.76 219.499 315.864C218.613 314.968 218.171 313.891 218.171 312.632C218.171 311.373 218.613 310.291 219.499 309.384C220.395 308.477 221.467 308.024 222.715 308.024C223.984 308.024 225.067 308.488 225.963 309.416C226.859 310.344 227.307 311.443 227.307 312.712ZM226.155 312.024C226.005 311.16 225.616 310.445 224.987 309.88C224.357 309.315 223.605 309.032 222.731 309.032C221.867 309.032 221.115 309.315 220.475 309.88C219.845 310.445 219.461 311.16 219.323 312.024H226.155ZM233.793 314.536C233.793 315.368 233.542 316.024 233.041 316.504C232.539 316.973 231.873 317.208 231.041 317.208C230.262 317.208 229.617 316.957 229.105 316.456C228.603 315.944 228.353 315.293 228.353 314.504V314.408H229.473C229.483 314.941 229.617 315.373 229.873 315.704C230.139 316.035 230.529 316.2 231.041 316.2C231.542 316.2 231.937 316.067 232.225 315.8C232.523 315.523 232.673 315.133 232.673 314.632C232.673 314.205 232.534 313.864 232.257 313.608C231.979 313.341 231.638 313.139 231.233 313C230.838 312.851 230.438 312.696 230.033 312.536C229.638 312.376 229.302 312.125 229.025 311.784C228.747 311.443 228.609 311 228.609 310.456C228.609 309.741 228.843 309.16 229.313 308.712C229.793 308.253 230.39 308.024 231.105 308.024C231.777 308.024 232.342 308.253 232.801 308.712C233.259 309.171 233.489 309.736 233.489 310.408H232.369C232.347 310.013 232.219 309.688 231.985 309.432C231.75 309.165 231.441 309.032 231.057 309.032C230.683 309.032 230.369 309.16 230.113 309.416C229.857 309.661 229.729 309.971 229.729 310.344C229.729 310.707 229.867 311 230.145 311.224C230.422 311.448 230.758 311.629 231.153 311.768C231.558 311.907 231.958 312.061 232.353 312.232C232.758 312.403 233.099 312.68 233.377 313.064C233.654 313.448 233.793 313.939 233.793 314.536ZM239.452 309.256H237.356V317H236.236V309.256H234.396V308.248H236.236V305.16H237.356V308.248H239.452V309.256ZM249.338 312.712C249.338 312.755 249.332 312.808 249.322 312.872C249.322 312.936 249.322 312.989 249.322 313.032H241.354C241.396 313.885 241.754 314.627 242.426 315.256C243.108 315.885 243.882 316.2 244.746 316.2C245.439 316.2 246.074 316.013 246.65 315.64C247.236 315.267 247.647 314.765 247.882 314.136H249.066C248.746 315.053 248.191 315.795 247.402 316.36C246.612 316.925 245.732 317.208 244.762 317.208C243.503 317.208 242.426 316.76 241.53 315.864C240.644 314.968 240.202 313.891 240.202 312.632C240.202 311.373 240.644 310.291 241.53 309.384C242.426 308.477 243.498 308.024 244.746 308.024C246.015 308.024 247.098 308.488 247.994 309.416C248.89 310.344 249.338 311.443 249.338 312.712ZM248.186 312.024C248.036 311.16 247.647 310.445 247.018 309.88C246.388 309.315 245.636 309.032 244.762 309.032C243.898 309.032 243.146 309.315 242.506 309.88C241.876 310.445 241.492 311.16 241.354 312.024H248.186ZM254.656 309.208C253.877 309.272 253.264 309.539 252.816 310.008C252.379 310.477 252.16 311.101 252.16 311.88V317H251.04V308.248H252.16V309.512H252.192C252.416 308.989 252.725 308.621 253.12 308.408C253.515 308.195 254.027 308.067 254.656 308.024V309.208ZM264.002 317H262.882V312.184C262.882 311.107 262.604 310.307 262.05 309.784C261.516 309.283 260.882 309.032 260.146 309.032C259.41 309.032 258.775 309.283 258.242 309.784C257.698 310.296 257.426 311.069 257.426 312.104V317H256.306V308.248H257.426V309.368H257.458C257.735 308.931 258.114 308.6 258.594 308.376C259.084 308.141 259.602 308.024 260.146 308.024C261.372 308.024 262.322 308.408 262.994 309.176C263.666 309.933 264.002 310.936 264.002 312.184V317ZM281.805 313.896C281.261 314.909 280.498 315.715 279.517 316.312C278.535 316.909 277.479 317.208 276.349 317.208C274.642 317.208 273.181 316.616 271.965 315.432C270.759 314.248 270.157 312.803 270.157 311.096C270.157 309.368 270.754 307.917 271.949 306.744C273.143 305.56 274.605 304.968 276.333 304.968C277.229 304.968 278.082 305.155 278.893 305.528C279.703 305.891 280.407 306.408 281.005 307.08C281.357 307.464 281.607 307.837 281.757 308.2H280.429C279.981 307.528 279.389 307 278.653 306.616C277.917 306.232 277.138 306.04 276.317 306.04C274.962 306.04 273.794 306.547 272.813 307.56C271.831 308.573 271.341 309.757 271.341 311.112C271.341 312.445 271.837 313.619 272.829 314.632C273.831 315.635 274.999 316.136 276.333 316.136C277.975 316.136 279.357 315.389 280.477 313.896H281.805ZM292.42 317H291.3V315.464H291.268C290.895 316.029 290.404 316.461 289.796 316.76C289.199 317.059 288.554 317.208 287.86 317.208C286.538 317.208 285.423 316.771 284.516 315.896C283.61 315.011 283.156 313.912 283.156 312.6C283.156 311.299 283.615 310.211 284.532 309.336C285.45 308.461 286.559 308.024 287.86 308.024C288.564 308.024 289.215 308.173 289.812 308.472C290.42 308.771 290.906 309.208 291.268 309.784H291.3V308.248H292.42V317ZM290.34 315.16C291.023 314.456 291.364 313.613 291.364 312.632C291.364 311.651 291.023 310.808 290.34 310.104C289.668 309.389 288.842 309.032 287.86 309.032C286.826 309.032 285.967 309.379 285.284 310.072C284.612 310.755 284.276 311.613 284.276 312.648C284.276 313.672 284.618 314.52 285.3 315.192C285.983 315.864 286.836 316.2 287.86 316.2C288.842 316.2 289.668 315.853 290.34 315.16ZM303.694 312.6C303.694 313.912 303.241 315.011 302.334 315.896C301.428 316.771 300.313 317.208 298.99 317.208C298.308 317.208 297.662 317.059 297.054 316.76C296.457 316.451 295.966 316.019 295.582 315.464H295.55V320.072H294.43V308.248H295.55V309.784H295.582C295.977 309.219 296.468 308.787 297.054 308.488C297.652 308.179 298.297 308.024 298.99 308.024C300.292 308.024 301.401 308.461 302.318 309.336C303.236 310.211 303.694 311.299 303.694 312.6ZM302.574 312.648C302.574 311.613 302.233 310.755 301.55 310.072C300.878 309.379 300.025 309.032 298.99 309.032C298.009 309.032 297.177 309.389 296.494 310.104C295.822 310.808 295.486 311.651 295.486 312.632C295.486 313.613 295.822 314.456 296.494 315.16C297.177 315.853 298.009 316.2 298.99 316.2C300.014 316.2 300.868 315.864 301.55 315.192C302.233 314.52 302.574 313.672 302.574 312.648ZM314.057 312.712C314.057 312.755 314.051 312.808 314.041 312.872C314.041 312.936 314.041 312.989 314.041 313.032H306.073C306.115 313.885 306.473 314.627 307.145 315.256C307.827 315.885 308.601 316.2 309.465 316.2C310.158 316.2 310.793 316.013 311.369 315.64C311.955 315.267 312.366 314.765 312.601 314.136H313.785C313.465 315.053 312.91 315.795 312.121 316.36C311.331 316.925 310.451 317.208 309.481 317.208C308.222 317.208 307.145 316.76 306.249 315.864C305.363 314.968 304.921 313.891 304.921 312.632C304.921 311.373 305.363 310.291 306.249 309.384C307.145 308.477 308.217 308.024 309.465 308.024C310.734 308.024 311.817 308.488 312.713 309.416C313.609 310.344 314.057 311.443 314.057 312.712ZM312.905 312.024C312.755 311.16 312.366 310.445 311.737 309.88C311.107 309.315 310.355 309.032 309.481 309.032C308.617 309.032 307.865 309.315 307.225 309.88C306.595 310.445 306.211 311.16 306.073 312.024H312.905Z" fill="#707079"/>
<path d="M448 373C449.45 373.161 450.958 374.255 452.38 374.647C455.686 375.557 459.292 375.284 462.686 375.419C464.005 375.471 465.295 375.764 466.617 375.779C467.637 375.791 469.066 376.27 470 375.779" stroke="#BBFF00" stroke-linecap="round" stroke-dasharray="0.75 2"/>
</g>
<path d="M108 372C108 374.75 105.75 377 103 377C100.25 377 98 374.75 98 372C98 369.25 100.25 367 103 367C105.75 367 108 369.25 108 372Z" fill="#BBFF00"/>
<path d="M104 362C104 364.75 101.75 367 99 367C96.25 367 94 364.75 94 362C94 359.25 96.25 357 99 357C101.75 357 104 359.25 104 362Z" fill="#BBFF00"/>
<path d="M133 362C133 364.75 130.75 367 128 367C125.25 367 123 364.75 123 362C123 359.25 125.25 357 128 357C130.75 357 133 359.25 133 362Z" fill="#BBFF00"/>
<path d="M111 403C111 405.75 108.75 408 106 408C103.25 408 101 405.75 101 403C101 400.25 103.25 398 106 398C108.75 398 111 400.25 111 403Z" fill="#BBFF00"/>
<path d="M160 403C160 405.75 157.75 408 155 408C152.25 408 150 405.75 150 403C150 400.25 152.25 398 155 398C157.75 398 160 400.25 160 403Z" fill="#BBFF00"/>
<path d="M170 409C170 411.75 167.75 414 165 414C162.25 414 160 411.75 160 409C160 406.25 162.25 404 165 404C167.75 404 170 406.25 170 409Z" fill="#BBFF00"/>
<path d="M455 375C455 377.75 452.75 380 450 380C447.25 380 445 377.75 445 375C445 372.25 447.25 370 450 370C452.75 370 455 372.25 455 375Z" fill="#BBFF00"/>
<path d="M476 375C476 377.75 473.75 380 471 380C468.25 380 466 377.75 466 375C466 372.25 468.25 370 471 370C473.75 370 476 372.25 476 375Z" fill="#BBFF00"/>
<path d="M100.998 370.36C101.133 369.013 102.728 367.352 102.109 365.96C101.671 364.974 100.981 363.747 102.22 363.359C103.874 362.842 105.878 364.392 107.221 365.159C108.933 366.137 111.226 367.428 113.089 368.049C114.705 368.588 115.866 369.808 117.4 370.36C119.829 371.235 122.252 372.301 124.623 373.338C126.15 374.006 127.461 374.48 129.002 375.25C130.412 375.955 131.401 377.338 132.802 377.961C133.817 378.412 134.244 379.584 135.203 380.139C136.064 380.638 136.87 381.029 137.803 381.362C141.35 382.628 145.319 383.017 148.96 384.006C149.927 384.269 155.665 385.171 156.183 386.985C156.526 388.184 156.205 389.893 156.205 391.163C156.205 394.404 153.405 396.51 153.405 399.786C153.405 404.683 158.301 405.04 161.85 404.787C166.847 404.43 172.321 406.09 177.097 407.476C182.199 408.957 186.487 406.033 189.832 402.898C191.206 401.609 191.645 399.759 193.21 398.542C194.617 397.447 196.757 397.706 198.433 397.253C202.899 396.046 200.459 389.493 202.3 386.362C203.124 384.961 205.767 385.013 207.145 384.851C210.359 384.473 213.302 383.849 216.413 383.117C220.433 382.171 224.05 379.748 227.103 377.25C228.55 376.066 231.085 377.365 232.615 377.583C238.036 378.358 244.886 380.021 249.329 375.25C250.325 374.179 250.322 371.16 252.418 371.16C255.055 371.16 257.961 371.627 260.308 372.938C268.572 377.557 279.958 379.78 289.378 378.272C293.248 377.653 296.079 377.507 300.024 378.383C300.798 378.555 301.313 379.445 302.113 379.539C303.66 379.721 305.614 379.518 307.025 378.85C309.149 377.844 311.514 376.501 313.181 378.539C315.695 381.611 318.008 384 322.094 384.851C325.179 385.494 328.181 385.667 331.25 386.162C333.598 386.541 336.066 386.006 338.318 386.673C341.943 387.748 348.479 387.832 352.009 386.184C354.904 384.833 358.465 385.808 361.432 386.273C363.85 386.653 367.214 386.776 369.611 386.34C370.934 386.1 373.149 385.95 373.834 384.718C374.619 383.303 374.212 381.426 374.945 379.961C376.343 377.166 382.022 377.462 384.48 376.139C386.314 375.151 388.58 375.158 390.391 374.183C392.689 372.946 395.296 372.402 397.659 371.338C400.982 369.843 404.843 368.209 408.416 367.649C410.436 367.332 412.499 368.206 414.461 368.671C416.734 369.209 418.971 369.16 421.284 369.16C424.932 369.16 428.752 367.062 432.486 368.16C437.28 369.57 442.35 369.814 446.643 371.96" stroke="#BBFF00" stroke-linecap="round" stroke-dasharray="0.75 2"/>
<path d="M102.998 400.765C99.307 396.857 103.798 392.263 101.798 387.763C101.175 386.363 98.8341 382.486 100.02 380.962C101.13 379.534 103.89 378.032 105.709 377.962C108.19 377.866 110.474 377.161 112.999 377.161C114.104 377.161 115.419 377.017 116.422 376.561C117.037 376.282 119.044 375.806 119.4 375.361C119.916 374.717 121.254 374.622 121.889 374.05C122.522 373.48 122.951 372.688 123.6 372.183C125.369 370.807 126.577 368.996 127.801 367.16" stroke="#BBFF00" stroke-linecap="round" stroke-dasharray="0.75 2"/>
<path d="M95.0631 376H94.0231V369.55H92.9331V368.6H95.0631V376Z" fill="white"/>
<path d="M91.4931 365H86.8631V364.13L89.7731 361.17C90.2198 360.723 90.4431 360.273 90.4431 359.82C90.4431 359.44 90.3265 359.11 90.0931 358.83C89.8598 358.55 89.5565 358.41 89.1831 358.41C88.7698 358.41 88.4465 358.56 88.2131 358.86C87.9798 359.16 87.8631 359.523 87.8631 359.95V360.14H86.8231V360.1C86.8165 359.527 86.9331 359.023 87.1731 358.59C87.4198 358.15 87.7931 357.83 88.2931 357.63C88.5731 357.517 88.8565 357.46 89.1431 357.46C89.8098 357.46 90.3665 357.693 90.8131 358.16C91.2598 358.62 91.4831 359.183 91.4831 359.85C91.4831 360.27 91.3965 360.633 91.2231 360.94C91.0565 361.247 90.7998 361.58 90.4531 361.94L88.3931 364.05H91.4931V365Z" fill="white"/>
<path d="M121.463 362.79C121.463 363.483 121.236 364.05 120.783 364.49C120.33 364.923 119.756 365.14 119.063 365.14C118.41 365.14 117.85 364.917 117.383 364.47C116.916 364.023 116.68 363.473 116.673 362.82H117.713C117.733 363.227 117.866 363.557 118.113 363.81C118.366 364.063 118.693 364.19 119.093 364.19C119.46 364.19 119.773 364.057 120.033 363.79C120.293 363.517 120.423 363.197 120.423 362.83C120.423 362.443 120.29 362.127 120.023 361.88C119.756 361.627 119.43 361.5 119.043 361.5H118.663V360.46H119.023C119.343 360.46 119.603 360.367 119.803 360.18C120.003 359.993 120.103 359.743 120.103 359.43C120.103 359.15 120.006 358.91 119.813 358.71C119.626 358.51 119.393 358.41 119.113 358.41C118.82 358.41 118.59 358.507 118.423 358.7C118.256 358.893 118.156 359.143 118.123 359.45H117.083C117.136 358.523 117.573 357.907 118.393 357.6C118.673 357.507 118.923 357.46 119.143 357.46C119.73 357.46 120.21 357.657 120.583 358.05C120.956 358.437 121.143 358.923 121.143 359.51C121.143 359.83 121.09 360.093 120.983 360.3C120.883 360.507 120.71 360.723 120.463 360.95C121.13 361.377 121.463 361.99 121.463 362.79Z" fill="white"/>
<path d="M99.7731 405.84H98.9931V407H97.9531V405.84H94.5731V404.83L97.9531 399.6H98.9931V404.89H99.7731V405.84ZM97.9531 404.89V401.33H97.9331L95.7731 404.89H97.9531Z" fill="white"/>
<path d="M147.753 403.49C147.753 404.223 147.513 404.85 147.033 405.37C146.553 405.883 145.95 406.14 145.223 406.14C144.53 406.14 143.953 405.92 143.493 405.48C143.04 405.033 142.776 404.46 142.703 403.76H143.743C143.823 404.18 143.99 404.523 144.243 404.79C144.496 405.057 144.826 405.19 145.233 405.19C145.653 405.19 146.003 405.027 146.283 404.7C146.57 404.373 146.713 403.997 146.713 403.57C146.713 403.117 146.583 402.717 146.323 402.37C146.063 402.017 145.713 401.84 145.273 401.84C144.693 401.84 144.25 402.097 143.943 402.61L143.043 402.4L143.663 398.6H147.043V399.55H144.523L144.243 401.19C144.523 400.99 144.866 400.89 145.273 400.89C146 400.89 146.593 401.14 147.053 401.64C147.52 402.133 147.753 402.75 147.753 403.49Z" fill="white"/>
<path d="M176.823 410.48C176.823 411.213 176.58 411.84 176.093 412.36C175.606 412.88 175 413.14 174.273 413.14C173.753 413.14 173.29 413.01 172.883 412.75C172.476 412.483 172.166 412.117 171.953 411.65C171.786 411.297 171.703 410.953 171.703 410.62C171.703 410.013 171.89 409.423 172.263 408.85L174.343 405.6H175.573L174.003 408.03C174.17 407.997 174.316 407.98 174.443 407.98C175.13 407.98 175.696 408.223 176.143 408.71C176.596 409.197 176.823 409.787 176.823 410.48ZM175.783 410.59C175.783 410.143 175.643 409.757 175.363 409.43C175.09 409.097 174.733 408.93 174.293 408.93C173.86 408.93 173.493 409.09 173.193 409.41C172.893 409.723 172.743 410.093 172.743 410.52C172.743 410.973 172.886 411.367 173.173 411.7C173.46 412.027 173.826 412.19 174.273 412.19C174.693 412.19 175.05 412.03 175.343 411.71C175.636 411.39 175.783 411.017 175.783 410.59Z" fill="white"/>
<path d="M470.11 366.79C470.11 367.437 469.88 367.99 469.42 368.45C468.967 368.91 468.417 369.14 467.77 369.14C467.123 369.14 466.57 368.917 466.11 368.47C465.657 368.017 465.43 367.467 465.43 366.82C465.43 366.033 465.753 365.4 466.4 364.92C466.18 364.7 466.02 364.483 465.92 364.27C465.82 364.057 465.77 363.8 465.77 363.5C465.77 362.94 465.967 362.46 466.36 362.06C466.753 361.66 467.23 361.46 467.79 361.46C468.343 361.46 468.813 361.663 469.2 362.07C469.587 362.47 469.78 362.943 469.78 363.49C469.78 363.803 469.73 364.07 469.63 364.29C469.53 364.503 469.36 364.713 469.12 364.92C469.78 365.367 470.11 365.99 470.11 366.79ZM468.74 363.39C468.74 363.123 468.647 362.893 468.46 362.7C468.273 362.507 468.047 362.41 467.78 362.41C467.507 362.41 467.277 362.513 467.09 362.72C466.903 362.92 466.81 363.157 466.81 363.43C466.81 363.703 466.9 363.94 467.08 364.14C467.267 364.34 467.497 364.44 467.77 364.44C468.063 364.44 468.297 364.34 468.47 364.14C468.65 363.94 468.74 363.69 468.74 363.39ZM469.07 366.88C469.07 366.507 468.943 366.183 468.69 365.91C468.443 365.637 468.137 365.5 467.77 365.5C467.403 365.5 467.093 365.637 466.84 365.91C466.593 366.183 466.47 366.503 466.47 366.87C466.47 367.23 466.593 367.54 466.84 367.8C467.093 368.06 467.4 368.19 467.76 368.19C468.113 368.19 468.42 368.06 468.68 367.8C468.94 367.54 469.07 367.233 469.07 366.88ZM473.347 366.63H470.547V365.59H473.347V366.63ZM476.96 369H475.92V362.55H474.83V361.6H476.96V369ZM484.066 363.89V366.62C484.066 366.98 484.03 367.287 483.956 367.54C483.883 367.787 483.74 368.037 483.526 368.29C483.053 368.857 482.43 369.14 481.656 369.14C481.296 369.14 480.95 369.063 480.616 368.91C480.29 368.75 480.013 368.527 479.786 368.24C479.586 367.987 479.45 367.73 479.376 367.47C479.31 367.21 479.276 366.9 479.276 366.54V363.96C479.276 363.42 479.4 362.95 479.646 362.55C479.893 362.143 480.26 361.84 480.746 361.64C481.06 361.513 481.376 361.45 481.696 361.45C482.376 361.45 482.94 361.687 483.386 362.16C483.84 362.633 484.066 363.21 484.066 363.89ZM483.026 366.64V363.89C483.026 363.45 482.91 363.093 482.676 362.82C482.443 362.54 482.113 362.4 481.686 362.4C481.26 362.4 480.923 362.54 480.676 362.82C480.436 363.093 480.316 363.45 480.316 363.89V366.62C480.316 367.08 480.436 367.457 480.676 367.75C480.916 368.043 481.256 368.19 481.696 368.19C482.09 368.19 482.423 368.033 482.696 367.72C482.836 367.56 482.926 367.403 482.966 367.25C483.006 367.097 483.026 366.893 483.026 366.64Z" fill="white"/>
<path d="M452.227 362.55L449.517 369H448.357L451.147 362.55H447.937V361.6H452.227V362.55Z" fill="white"/>
</g>
<defs>
<clipPath id="clip0_8539_9112">
<rect width="580" height="700" fill="white"/>
</clipPath>
<clipPath id="clip1_8539_9112">
<rect width="1242.2" height="1090.4" fill="white" transform="translate(-48 -645)"/>
</clipPath>
</defs>
</svg>
